<?xml version="1.0" encoding="UTF-8"?>
<!DOCTYPE svg PUBLIC "-//W3C//DTD SVG 1.1//EN" "http://www.w3.org/Graphics/SVG/1.1/DTD/svg11.dtd">
<svg xmlns="http://www.w3.org/2000/svg" version="1.1" width="566px" height="597px" style="shape-rendering:geometricPrecision; text-rendering:geometricPrecision; image-rendering:optimizeQuality; fill-rule:evenodd; clip-rule:evenodd" xmlns:xlink="http://www.w3.org/1999/xlink">
<g><path style="opacity:0.953" fill="#fefffe" d="M 401.5,1.5 C 413.838,1.33346 426.171,1.50012 438.5,2C 459.724,7.57455 469.891,21.4079 469,43.5C 466.832,46.6859 464.665,49.8525 462.5,53C 459.929,53.9009 457.596,55.2342 455.5,57C 452.833,57.3333 450.167,57.6667 447.5,58C 358.829,58.7963 270.163,58.6296 181.5,57.5C 171.789,57.5593 162.122,58.226 152.5,59.5C 140.522,58.418 128.522,57.5847 116.5,57C 106.044,54.5344 100.711,47.8678 100.5,37C 101.666,21.9746 109,11.3079 122.5,5C 125.167,4.33333 127.833,3.66667 130.5,3C 221.001,2.83302 311.334,2.33302 401.5,1.5 Z"/></g>
<g><path style="opacity:0.883" fill="#fefffe" d="M 86.5,22.5 C 88.1667,22.5 89.8333,22.5 91.5,22.5C 90.1519,27.5072 88.8186,32.5072 87.5,37.5C 88.344,41.8373 88.844,46.1706 89,50.5C 74.8637,56.746 64.1971,66.746 57,80.5C 54.5192,86.2868 51.8525,91.9535 49,97.5C 40.1015,98.1488 31.2682,99.4821 22.5,101.5C 20.9996,101.547 19.9996,100.881 19.5,99.5C 22.8107,92.7438 25.6441,85.7438 28,78.5C 41.5021,53.4965 61.0021,34.8298 86.5,22.5 Z"/></g>
<g><path style="opacity:0.886" fill="#fefffe" d="M 479.5,22.5 C 513.933,36.9349 536.933,61.9349 548.5,97.5C 539.482,97.3797 530.482,96.8797 521.5,96C 521,95.5 520.5,95 520,94.5C 518.873,90.2504 517.207,86.2504 515,82.5C 505.832,68.6598 494.165,57.6598 480,49.5C 480.715,41.7568 479.881,34.0902 477.5,26.5C 477.803,24.8857 478.47,23.5523 479.5,22.5 Z"/></g>
<g><path style="opacity:0.897" fill="#fefffe" d="M 154.5,63.5 C 156.564,63.687 158.564,64.187 160.5,65C 161.108,66.231 161.441,67.5643 161.5,69C 159.832,76.6772 156.999,83.8438 153,90.5C 151.141,98.7316 149.974,107.065 149.5,115.5C 150.516,130.179 152.349,144.513 155,158.5C 158.543,168.59 163.877,177.59 171,185.5C 171.453,190.61 173.953,194.11 178.5,196C 183.416,202.966 189.749,208.299 197.5,212C 203.506,219.839 210.506,226.673 218.5,232.5C 219.386,233.325 219.719,234.325 219.5,235.5C 223.159,236.315 225.826,238.481 227.5,242C 231.307,243.14 233.807,245.64 235,249.5C 244.274,258.103 253.608,266.77 263,275.5C 264.093,279.216 264.593,283.05 264.5,287C 264.193,294.18 263.693,301.347 263,308.5C 262.316,310.359 261.316,312.026 260,313.5C 232.239,340.1 204.406,366.433 176.5,392.5C 148.881,428.388 142.048,468.055 156,511.5C 159.247,515.659 162.247,519.992 165,524.5C 165.667,525.833 165.667,527.167 165,528.5C 157.278,528.649 149.445,528.815 141.5,529C 132.918,515.198 128.418,500.032 128,483.5C 124.446,449.046 132.446,417.713 152,389.5C 158.042,383.127 163.708,376.46 169,369.5C 182.556,356.391 196.389,343.891 210.5,332C 221.114,320.264 232.281,309.097 244,298.5C 246.071,293.836 245.404,289.503 242,285.5C 215.667,261.167 189.333,236.833 163,212.5C 130.583,174.19 120.583,130.523 133,81.5C 135.424,76.9841 137.59,72.3174 139.5,67.5C 144.421,65.6302 149.421,64.2969 154.5,63.5 Z"/></g>
<g><path style="opacity:0.897" fill="#fefffe" d="M 407.5,68.5 C 414.841,68.3337 422.174,68.5003 429.5,69C 431.617,70.7309 433.117,72.8976 434,75.5C 443.458,98.8735 445.458,122.874 440,147.5C 437.688,155.107 435.355,162.774 433,170.5C 428.853,178.616 424.519,186.616 420,194.5C 414.025,202.806 407.691,210.806 401,218.5C 396.713,222.743 392.213,226.743 387.5,230.5C 384.645,233.52 381.979,236.687 379.5,240C 364.61,251.217 350.61,263.55 337.5,277C 335.919,277.707 334.419,278.54 333,279.5C 329.443,283.947 326.943,288.947 325.5,294.5C 326.361,297.527 327.861,300.194 330,302.5C 334.86,307.36 339.694,312.194 344.5,317C 349.167,320.667 353.833,324.333 358.5,328C 375.033,345.201 392.2,361.701 410,377.5C 443.927,420.626 451.927,468.292 434,520.5C 431.817,526.694 427.483,529.694 421,529.5C 416.781,528.649 412.614,528.649 408.5,529.5C 407.119,529 406.453,528 406.5,526.5C 415.274,509.349 420.274,491.182 421.5,472C 420.882,441.631 411.048,414.798 392,391.5C 369.504,370.67 347.337,349.504 325.5,328C 320.809,323.815 315.809,319.981 310.5,316.5C 309.139,314.972 307.972,313.305 307,311.5C 306.333,299.833 306.333,288.167 307,276.5C 320.068,266.769 331.901,255.603 342.5,243C 343.833,242.333 345.167,241.667 346.5,241C 361.514,226.597 376.348,212.097 391,197.5C 414.056,169.273 423.39,136.94 419,100.5C 417.285,90.6863 413.619,81.6863 408,73.5C 407.506,71.8659 407.34,70.1992 407.5,68.5 Z"/></g>
<g><path style="opacity:0.886" fill="#fefffe" d="M 36.5,113.5 C 68.4681,112.63 82.3014,127.963 78,159.5C 77.3333,161.5 76.6667,163.5 76,165.5C 73.1039,168.942 70.4372,172.608 68,176.5C 60.5066,179.775 52.84,182.442 45,184.5C 18.8087,181.98 6.80865,167.646 9,141.5C 10.8835,135.195 13.5502,129.195 17,123.5C 20.2493,122.083 23.0827,120.083 25.5,117.5C 29.2198,115.998 32.8864,114.665 36.5,113.5 Z M 57.5,148.5 C 57.3093,150.746 56.976,153.079 56.5,155.5C 54.8333,156.833 53.1667,158.167 51.5,159.5C 50.8333,159.167 50.1667,158.833 49.5,158.5C 48.8619,160.97 47.3619,162.637 45,163.5C 41.7782,162.418 38.9449,161.418 36.5,160.5C 34.6182,158.758 33.1182,156.758 32,154.5C 31.5357,155.094 31.369,155.761 31.5,156.5C 30.5,156.167 29.8333,155.5 29.5,154.5C 28.4675,153.088 27.8008,151.422 27.5,149.5C 28.6395,146.468 28.8062,143.468 28,140.5C 31.6189,136.523 35.9523,133.856 41,132.5C 41.3333,133.167 41.6667,133.833 42,134.5C 43.7161,134.589 45.5494,134.256 47.5,133.5C 49.1667,134.833 50.8333,136.167 52.5,137.5C 53.086,137.291 53.586,136.957 54,136.5C 54.3459,138.848 55.5125,140.681 57.5,142C 58.3434,144.013 58.3434,146.18 57.5,148.5 Z"/></g>
<g><path style="opacity:0.951" fill="#fefffe" d="M 188.5,193.5 C 187.132,192.528 185.632,191.528 184,190.5C 183.102,186.456 180.935,183.456 177.5,181.5C 177.649,180.448 177.483,179.448 177,178.5C 173.837,174.844 171.171,170.844 169,166.5C 167.151,157.644 164.318,149.144 160.5,141C 160.637,136.341 162.304,132.341 165.5,129C 188.903,113.437 214.236,109.77 241.5,118C 249.481,121.329 257.481,124.662 265.5,128C 284.582,138.245 303.916,147.911 323.5,157C 329.314,158.203 334.981,159.87 340.5,162C 349.454,163.474 358.454,163.807 367.5,163C 379.895,159.816 391.562,154.983 402.5,148.5C 403.902,148.865 404.902,149.699 405.5,151C 402.192,160.782 397.692,169.949 392,178.5C 387.952,182.88 384.285,187.546 381,192.5C 369.858,203.309 359.025,214.476 348.5,226C 346.004,227.08 343.67,228.414 341.5,230C 326.64,243.527 312.473,257.694 299,272.5C 298,274.5 297,276.5 296,278.5C 295.761,288.853 295.261,299.186 294.5,309.5C 293.496,313.171 291.162,315.504 287.5,316.5C 283.667,315.219 279.834,313.886 276,312.5C 274.898,300.862 274.232,289.195 274,277.5C 273.457,275.369 272.624,273.369 271.5,271.5C 262.678,263.511 254.345,255.011 246.5,246C 237.386,237.868 228.052,230.202 218.5,223C 209.279,212.41 199.279,202.576 188.5,193.5 Z M 195.5,141.5 C 203.186,146.689 209.353,153.356 214,161.5C 218.946,164.758 221.78,169.258 222.5,175C 220.987,176.879 220.321,179.046 220.5,181.5C 214.111,182.76 207.778,182.593 201.5,181C 198.291,177.158 194.791,173.658 191,170.5C 186.689,162.701 186.355,154.701 190,146.5C 192.328,145.336 194.162,143.67 195.5,141.5 Z M 231.5,180.5 C 232.822,180.33 233.989,180.663 235,181.5C 240.604,190.022 238.604,196.022 229,199.5C 220.667,197.309 218.167,192.309 221.5,184.5C 223.193,183.772 224.693,182.772 226,181.5C 226.333,181.833 226.667,182.167 227,182.5C 228.622,181.901 230.122,181.234 231.5,180.5 Z"/></g>
<g><path style="opacity:0.917" fill="#fefffe" d="M 514.5,115.5 C 529.175,115.548 543.841,115.881 558.5,116.5C 558.851,119.238 559.518,121.904 560.5,124.5C 559.681,140.789 559.181,157.123 559,173.5C 556.176,176.454 552.676,178.287 548.5,179C 540.659,180.999 532.826,182.499 525,183.5C 515.58,182.457 506.413,180.29 497.5,177C 494.926,175.086 493.093,172.586 492,169.5C 491.303,151.821 491.47,134.154 492.5,116.5C 500.019,116.825 507.352,116.492 514.5,115.5 Z M 510.5,134.5 C 519.833,134.5 529.167,134.5 538.5,134.5C 539.343,143.07 539.343,151.57 538.5,160C 529.173,160.5 519.839,160.666 510.5,160.5C 510.5,151.833 510.5,143.167 510.5,134.5 Z"/></g>
<g><path style="opacity:0.831" fill="#fefffe" d="M 514.5,136.5 C 521.524,136.435 528.524,136.768 535.5,137.5C 536.58,144.393 536.58,151.227 535.5,158C 528.252,157.573 520.918,157.406 513.5,157.5C 513.685,150.344 514.018,143.344 514.5,136.5 Z"/></g>
<g><path style="opacity:0.005" fill="#fefffe" d="M 57.5,148.5 C 56.6365,149.463 55.9698,149.463 55.5,148.5C 56.7213,144.661 57.3879,144.661 57.5,148.5 Z"/></g>
<g><path style="opacity:0.877" fill="#fefffe" d="M 77.5,177.5 C 79.9267,177.523 82.26,178.023 84.5,179C 91.4459,185.607 97.9459,192.441 104,199.5C 119.007,196.853 127.507,203.02 129.5,218C 128.551,222.154 128.051,226.321 128,230.5C 136.152,237.808 143.319,245.808 149.5,254.5C 149.392,255.442 149.059,256.275 148.5,257C 144.925,258.57 141.592,260.57 138.5,263C 137.167,263.667 135.833,263.667 134.5,263C 126.912,255.252 119.912,247.085 113.5,238.5C 106.755,238.772 100.588,236.772 95,232.5C 93.2745,230.772 91.9411,228.772 91,226.5C 90.5755,220.138 90.5755,213.805 91,207.5C 83.4024,201.906 76.4024,195.573 70,188.5C 68.7936,185.162 69.9603,183.329 73.5,183C 74.6647,181.008 75.998,179.175 77.5,177.5 Z"/></g>
<g><path style="opacity:0.004" fill="#fefffe" d="M 174.5,178.5 C 173.833,177.167 173.833,177.167 174.5,178.5 Z"/></g>
<g><path style="opacity:0.008" fill="#fefffe" d="M 174.5,178.5 C 175.525,178.897 175.692,179.563 175,180.5C 174.536,179.906 174.369,179.239 174.5,178.5 Z"/></g>
<g><path style="opacity:0.857" fill="#fefffe" d="M 484.5,179.5 C 489.959,179.751 494.459,182.084 498,186.5C 498.387,190.165 496.887,192.998 493.5,195C 488.673,199.159 483.84,203.326 479,207.5C 478.842,211.381 479.342,215.215 480.5,219C 479.085,232.731 471.418,238.731 457.5,237C 450.58,247.022 442.414,255.855 433,263.5C 427.894,262.215 424.06,259.382 421.5,255C 421.625,253.373 422.125,251.873 423,250.5C 430.641,243.535 437.475,236.035 443.5,228C 437.15,210.521 443.15,200.354 461.5,197.5C 463.432,198.52 465.432,198.687 467.5,198C 473.033,191.637 478.699,185.471 484.5,179.5 Z M 456.5,210.5 C 463.31,209.975 466.31,212.975 465.5,219.5C 455.811,222.482 452.811,219.482 456.5,210.5 Z"/></g>
<g><path style="opacity:0.004" fill="#fefffe" d="M 177.5,181.5 C 176.833,182.167 176.833,182.167 177.5,181.5 Z"/></g>
<g><path style="opacity:0.012" fill="#fefffe" d="M 179.5,185.5 C 178.833,184.167 178.833,184.167 179.5,185.5 Z"/></g>
<g><path style="opacity:0.006" fill="#fefffe" d="M 179.5,185.5 C 180.525,185.897 180.692,186.563 180,187.5C 179.536,186.906 179.369,186.239 179.5,185.5 Z"/></g>
<g><path style="opacity:0.835" fill="#fefffe" d="M 8.5,190.5 C 12.1817,190.335 15.8484,190.501 19.5,191C 21.3289,191.273 22.8289,192.107 24,193.5C 23.8956,207.369 23.3956,221.202 22.5,235C 19.1827,235.608 15.8494,236.108 12.5,236.5C 10.6803,236.351 9.1803,235.684 8,234.5C 6.65512,221.189 6.32179,207.856 7,194.5C 7.4101,193.099 7.9101,191.766 8.5,190.5 Z"/></g>
<g><path style="opacity:0.818" fill="#fefffe" d="M 552.5,190.5 C 554.857,190.337 557.19,190.503 559.5,191C 562.917,207.015 563.417,223.182 561,239.5C 559.274,240.576 557.441,240.743 555.5,240C 552.284,237.427 548.617,235.927 544.5,235.5C 544.667,223.162 544.5,210.829 544,198.5C 543.626,197.584 543.126,196.75 542.5,196C 540.5,195.667 538.5,195.333 536.5,195C 537.43,194.009 538.596,193.509 540,193.5C 544.829,194.989 548.996,193.989 552.5,190.5 Z"/></g>
<g><path style="opacity:0.004" fill="#fefffe" d="M 188.5,193.5 C 187.833,194.167 187.833,194.167 188.5,193.5 Z"/></g>
<g><path style="opacity:0.832" fill="#fefffe" d="M 46.5,195.5 C 48.8211,195.229 50.8211,195.896 52.5,197.5C 53.6658,208.819 53.8325,220.152 53,231.5C 52.1667,232.333 51.3333,233.167 50.5,234C 46.1667,234.667 41.8333,234.667 37.5,234C 37,233.5 36.5,233 36,232.5C 35.5001,220.838 35.3335,209.171 35.5,197.5C 37.9794,196.928 40.3127,196.928 42.5,197.5C 44.1705,197.332 45.5039,196.665 46.5,195.5 Z"/></g>
<g><path style="opacity:0.817" fill="#fefffe" d="M 518.5,196.5 C 523.167,197.833 527.833,197.833 532.5,196.5C 533.341,207.403 533.341,218.237 532.5,229C 533.26,230.441 533.926,231.941 534.5,233.5C 533.333,233.833 532.167,234.167 531,234.5C 527.187,233.663 523.353,233.497 519.5,234C 518.151,233.228 517.318,232.061 517,230.5C 516.202,219.058 516.702,207.725 518.5,196.5 Z"/></g>
<g><path style="opacity:0.825" fill="#fefffe" d="M 565.5,281.5 C 565.5,287.833 565.5,294.167 565.5,300.5C 561.183,315.653 551.516,325.82 536.5,331C 515.968,334.605 500.468,327.438 490,309.5C 481.03,284.394 487.864,265.227 510.5,252C 529.917,245.538 546.084,250.038 559,265.5C 561.676,270.71 563.843,276.044 565.5,281.5 Z M 524.5,267.5 C 537.348,268.849 544.348,276.016 545.5,289C 543.899,301.762 536.566,308.596 523.5,309.5C 512.064,307.731 506.398,301.065 506.5,289.5C 506.346,276.998 512.346,269.664 524.5,267.5 Z"/></g>
<g><path style="opacity:0.833" fill="#fefffe" d="M 20.5,266.5 C 20.1667,265.167 19.8333,265.167 19.5,266.5C 16.2637,264.882 12.5971,263.049 8.5,261C 7.64332,260.311 6.97665,259.478 6.5,258.5C 8.60679,256.273 10.9401,254.273 13.5,252.5C 34.6785,251.806 55.8452,251.139 77,250.5C 78.7106,250.439 80.044,251.106 81,252.5C 81.6667,255.167 81.6667,257.833 81,260.5C 80,260.167 79,259.833 78,259.5C 70.4023,265.75 62.2356,271.25 53.5,276C 47.5391,277.239 41.5391,277.573 35.5,277C 32.8333,275.667 30.1667,274.333 27.5,273C 28.8333,272.333 28.8333,271.667 27.5,271C 25.9052,271.617 24.5719,271.284 23.5,270C 24.0317,267.995 23.0317,266.829 20.5,266.5 Z"/></g>
<g><path style="opacity:0.919" fill="#fefffe" d="M 6.5,264.5 C 9.49665,265.802 12.83,267.302 16.5,269C 21.3224,272.911 26.3224,276.578 31.5,280C 34.7256,281.199 38.059,281.699 41.5,281.5C 40.7449,291.196 40.4116,300.863 40.5,310.5C 41.7348,313.044 42.9015,313.044 44,310.5C 43.9059,300.421 44.0725,290.421 44.5,280.5C 51.0332,280.689 57.3665,279.689 63.5,277.5C 64.3857,276.675 64.719,275.675 64.5,274.5C 69.9773,272.173 75.144,269.173 80,265.5C 80.3333,265.833 80.6667,266.167 81,266.5C 80.4287,284.169 80.5953,301.836 81.5,319.5C 81.3333,321.833 81.1667,324.167 81,326.5C 80.5,327 80,327.5 79.5,328C 56.5203,327.884 33.5203,327.884 10.5,328C 7.58881,327.353 6.25547,325.519 6.5,322.5C 7.71244,303.174 7.71244,283.84 6.5,264.5 Z"/></g>
<g><path style="opacity:0.883" fill="#fefffe" d="M 156.5,264.5 C 165.072,264.229 172.738,266.729 179.5,272C 187.629,284.612 187.463,297.112 179,309.5C 173.82,314.507 167.654,317.507 160.5,318.5C 157.5,318 154.5,317.5 151.5,317C 134.02,310.411 128.354,298.244 134.5,280.5C 137.355,277.48 140.021,274.313 142.5,271C 147.248,268.71 151.915,266.543 156.5,264.5 Z M 157.5,283.5 C 164.091,283.594 166.924,286.927 166,293.5C 161.137,300.214 156.47,299.881 152,292.5C 151.348,287.934 153.182,284.934 157.5,283.5 Z"/></g>
<g><path style="opacity:0.887" fill="#fefffe" d="M 404.5,264.5 C 410.262,264.149 415.928,264.649 421.5,266C 424.58,268.29 427.747,270.457 431,272.5C 437.109,283.312 438.109,294.646 434,306.5C 429.065,311.716 423.232,315.55 416.5,318C 400.299,319.932 389.799,313.099 385,297.5C 381.841,280.545 388.341,269.545 404.5,264.5 Z M 406.5,281.5 C 410.694,281.73 414.194,283.397 417,286.5C 418.378,294.122 415.211,297.622 407.5,297C 401.395,294.214 399.895,289.714 403,283.5C 404.302,282.915 405.469,282.249 406.5,281.5 Z"/></g>
<g><path style="opacity:0.004" fill="#fefffe" d="M 19.5,266.5 C 19.8333,266.5 20.1667,266.5 20.5,266.5C 20.3147,267.17 19.9813,267.17 19.5,266.5 Z"/></g>
<g><path style="opacity:0.845" fill="#fefffe" d="M 446.5,281.5 C 455.887,281.193 465.22,281.527 474.5,282.5C 475.804,287.719 475.804,292.886 474.5,298C 464.462,298.438 454.462,298.771 444.5,299C 443.426,298.261 442.759,297.261 442.5,296C 443.412,291.554 443.745,287.054 443.5,282.5C 444.791,282.737 445.791,282.404 446.5,281.5 Z"/></g>
<g><path style="opacity:0.862" fill="#fefffe" d="M 95.5,282.5 C 105.839,282.334 116.172,282.5 126.5,283C 127.059,283.725 127.392,284.558 127.5,285.5C 126.818,289.138 126.318,292.805 126,296.5C 125.5,297 125,297.5 124.5,298C 114.811,298.508 105.144,298.842 95.5,299C 93.8198,298.653 92.8198,297.653 92.5,296C 94.9455,292.541 94.9455,289.208 92.5,286C 93.365,284.641 94.365,283.474 95.5,282.5 Z"/></g>
<g><path style="opacity:0.861" fill="#fefffe" d="M 133.5,317.5 C 138.134,317.48 142.467,318.646 146.5,321C 148.363,322.418 148.863,324.251 148,326.5C 144.354,329.816 141.021,333.482 138,337.5C 133.476,341.031 128.976,344.531 124.5,348C 131.728,359.186 129.728,368.52 118.5,376C 113.862,377.735 109.195,378.401 104.5,378C 100.396,383.556 96.0622,388.89 91.5,394C 90.1667,394.667 88.8333,394.667 87.5,394C 85.4437,389.968 82.1103,387.968 77.5,388C 76.4464,386.612 76.2797,385.112 77,383.5C 81.6667,378.833 86.3333,374.167 91,369.5C 90.6841,365.874 90.1841,362.207 89.5,358.5C 89.2393,350.852 92.2393,345.018 98.5,341C 103.75,339.826 109.084,339.159 114.5,339C 116.583,335.243 119.083,331.743 122,328.5C 126.282,325.234 130.115,321.568 133.5,317.5 Z M 107.5,355.5 C 112.92,356.303 113.587,358.303 109.5,361.5C 105.319,360.495 104.653,358.495 107.5,355.5 Z"/></g>
<g><path style="opacity:0.86" fill="#fefffe" d="M 430.5,317.5 C 433.893,317.062 436.893,317.895 439.5,320C 445.566,325.555 450.9,331.555 455.5,338C 462.162,337.66 468.329,339.16 474,342.5C 476.442,345.048 478.108,348.048 479,351.5C 479.654,357.629 479.321,363.629 478,369.5C 483.359,374.196 488.692,378.862 494,383.5C 494.758,385.769 494.591,387.936 493.5,390C 490.55,391.615 487.884,393.615 485.5,396C 484.5,396.667 483.5,396.667 482.5,396C 478.027,391.527 473.527,387.027 469,382.5C 468.887,380.026 467.887,378.026 466,376.5C 450.382,379.687 441.882,373.353 440.5,357.5C 441.879,353.884 442.713,350.217 443,346.5C 436.36,339.86 429.694,333.194 423,326.5C 422.333,324.833 422.333,323.167 423,321.5C 425.633,320.248 428.133,318.914 430.5,317.5 Z M 458.5,353.5 C 461.243,353.077 462.576,354.244 462.5,357C 460.833,361.667 459.167,361.667 457.5,357C 457.648,355.744 457.982,354.577 458.5,353.5 Z"/></g>
<g><path style="opacity:0.875" fill="#fefffe" d="M 280.5,324.5 C 288.196,323.432 293.696,326.432 297,333.5C 303.492,354.008 296.659,360.508 276.5,353C 271.533,348.179 269.7,342.345 271,335.5C 273.722,331.348 276.888,327.681 280.5,324.5 Z"/></g>
<g><path style="opacity:0.882" fill="#fefffe" d="M 557.5,338.5 C 559.017,338.511 560.184,339.177 561,340.5C 561.663,343.977 562.163,347.477 562.5,351C 561.787,360.82 561.287,370.653 561,380.5C 560.653,382.18 559.653,383.18 558,383.5C 554.545,382.31 551.045,381.31 547.5,380.5C 546.334,368.514 546.167,356.514 547,344.5C 547.465,343.069 548.299,341.903 549.5,341C 552.379,340.454 555.046,339.621 557.5,338.5 Z"/></g>
<g><path style="opacity:0.797" fill="#fefffe" d="M 10.5,342.5 C 15.1619,341.804 19.3286,342.804 23,345.5C 24.9691,355.492 24.9691,365.492 23,375.5C 18.7457,380.347 14.2457,380.681 9.5,376.5C 7.93052,365.001 8.26385,353.668 10.5,342.5 Z"/></g>
<g><path style="opacity:0.855" fill="#fefffe" d="M 36.5,344.5 C 41.5111,344.334 46.5111,344.501 51.5,345C 52,345.5 52.5,346 53,346.5C 53.8186,356.744 53.652,366.91 52.5,377C 50.8632,377.601 49.1966,378.101 47.5,378.5C 43.4731,377.905 39.4731,377.239 35.5,376.5C 34.7714,372.05 34.7714,367.55 35.5,363C 35.5172,358.717 34.8506,354.55 33.5,350.5C 33.4672,347.898 34.4672,345.898 36.5,344.5 Z"/></g>
<g><path style="opacity:0.875" fill="#fefffe" d="M 518.5,345.5 C 522.872,346.383 527.206,346.55 531.5,346C 532.126,346.75 532.626,347.584 533,348.5C 532.684,357.803 532.517,367.136 532.5,376.5C 527.238,376.805 522.072,376.471 517,375.5C 516.947,365.435 517.447,355.435 518.5,345.5 Z"/></g>
<g><path style="opacity:0.007" fill="#fefffe" d="M 29.5,372.5 C 30.5735,373.251 30.7401,374.251 30,375.5C 29.5172,374.552 29.3505,373.552 29.5,372.5 Z"/></g>
<g><path style="opacity:0.831" fill="#fefffe" d="M 283.5,374.5 C 289.901,375.726 294.401,379.393 297,385.5C 298.336,392.166 296.169,397.332 290.5,401C 276.153,401.647 271.32,395.147 276,381.5C 277.767,378.228 280.267,375.895 283.5,374.5 Z"/></g>
<g><path style="opacity:0.8" fill="#fefffe" d="M 318.5,381.5 C 329.638,380.481 333.805,385.481 331,396.5C 326.814,403.538 321.814,404.205 316,398.5C 313.627,392.275 314.46,386.609 318.5,381.5 Z"/></g>
<g><path style="opacity:0.839" fill="#fefffe" d="M 198.5,389.5 C 204.369,389.066 209.202,391.066 213,395.5C 213.667,397.833 213.667,400.167 213,402.5C 208.426,407.4 204.26,412.566 200.5,418C 198.228,418.941 196.228,420.274 194.5,422C 189.341,422.429 185.008,420.595 181.5,416.5C 180.895,410.301 182.562,404.634 186.5,399.5C 190.3,395.68 194.3,392.347 198.5,389.5 Z"/></g>
<g><path style="opacity:0.849" fill="#fefffe" d="M 565.5,430.5 C 565.5,436.5 565.5,442.5 565.5,448.5C 563.647,450.375 561.813,452.375 560,454.5C 558.986,458.378 557.486,462.044 555.5,465.5C 550.161,469.669 544.161,472.502 537.5,474C 528.961,482.899 520.961,482.566 513.5,473C 507.198,472.341 501.198,470.675 495.5,468C 492.21,463.1 490.376,457.6 490,451.5C 486.563,448.8 482.897,446.466 479,444.5C 478.333,440.833 478.333,437.167 479,433.5C 482,431.833 485,430.167 488,428.5C 489.186,422.197 490.186,415.864 491,409.5C 492.5,407.667 494,405.833 495.5,404C 500.675,402.613 505.342,400.28 509.5,397C 515.011,395.415 520.511,393.915 526,392.5C 536.966,395.489 547.466,399.655 557.5,405C 558.46,406.419 559.293,407.919 560,409.5C 559.987,416.016 560.987,422.349 563,428.5C 563.708,429.381 564.542,430.047 565.5,430.5 Z M 522.5,412.5 C 533.962,412.641 540.795,418.308 543,429.5C 543.382,448.464 534.549,455.297 516.5,450C 504.868,439.036 504.535,427.702 515.5,416C 517.925,414.787 520.259,413.621 522.5,412.5 Z"/></g>
<g><path style="opacity:0.907" fill="#fefffe" d="M 8.5,396.5 C 29.6807,397.549 50.8474,397.549 72,396.5C 74.7633,396.918 77.43,397.584 80,398.5C 81.0637,402.748 81.5637,407.081 81.5,411.5C 80.3536,424.996 80.3536,438.496 81.5,452C 81.3333,456.833 81.1667,461.667 81,466.5C 79.8089,468.915 77.8089,470.248 75,470.5C 71.0384,469.882 67.0384,469.549 63,469.5C 48.1251,471.494 33.1251,472.161 18,471.5C 13.7181,471.97 9.88479,470.97 6.5,468.5C 5.79379,447.66 5.12712,426.827 4.5,406C 4.90846,402.36 6.24179,399.194 8.5,396.5 Z M 23.5,421.5 C 24.4614,419.735 24.7947,417.735 24.5,415.5C 26.1667,415.5 27.8333,415.5 29.5,415.5C 29.56,414.957 29.8933,414.624 30.5,414.5C 32.2877,416.576 33.9544,418.743 35.5,421C 34.283,422.648 33.4497,424.481 33,426.5C 28.3571,427.709 25.1905,426.042 23.5,421.5 Z M 54.5,414.5 C 57.7962,414.696 60.1295,416.362 61.5,419.5C 59.5011,422.64 56.8344,424.64 53.5,425.5C 48.3212,421.471 48.6545,417.804 54.5,414.5 Z M 27.5,438.5 C 32.9593,438.53 35.6259,441.364 35.5,447C 34.6667,448.5 33.5,449.667 32,450.5C 23.1893,448.611 21.6893,444.611 27.5,438.5 Z M 53.5,438.5 C 54.991,438.901 56.6577,439.068 58.5,439C 59.9437,440.763 60.9437,442.763 61.5,445C 60.1667,446 60.1667,447 61.5,448C 59.6711,448.273 58.1711,449.107 57,450.5C 55.2467,449.373 53.4134,448.373 51.5,447.5C 49.7818,443.772 50.4485,440.772 53.5,438.5 Z"/></g>
<g><path style="opacity:0.964" fill="#fefffe" d="M 282.5,416.5 C 294.535,416.005 305.202,419.505 314.5,427C 338.042,452.042 362.375,476.209 387.5,499.5C 391.578,502.623 395.745,505.623 400,508.5C 400.273,510.101 400.773,511.601 401.5,513C 398.947,518.761 395.614,524.094 391.5,529C 321.345,528.175 251.179,528.342 181,529.5C 178.207,529.695 175.707,529.029 173.5,527.5C 172.257,524.018 170.757,520.684 169,517.5C 168.21,514.366 168.543,511.366 170,508.5C 198.951,486.882 224.618,461.882 247,433.5C 250.197,431.333 253.03,428.833 255.5,426C 259.344,423.832 263.177,421.665 267,419.5C 272.27,418.314 277.437,417.314 282.5,416.5 Z"/></g>
<g><path style="opacity:0.844" fill="#fefffe" d="M 177.5,432.5 C 185.205,431.624 189.205,434.957 189.5,442.5C 188.496,448.524 187.33,454.524 186,460.5C 180.766,466.685 175.766,466.685 171,460.5C 169.145,453.514 169.145,446.514 171,439.5C 172.73,436.609 174.896,434.276 177.5,432.5 Z"/></g>
<g><path style="opacity:0.893" fill="#fefffe" d="M 547.5,482.5 C 551.319,482.28 552.986,484.113 552.5,488C 547.866,514.937 535.866,537.937 516.5,557C 508.84,562.499 500.84,567.499 492.5,572C 488.493,573.78 484.493,575.114 480.5,576C 479.196,575.196 478.529,574.029 478.5,572.5C 479.747,568.919 481.08,565.419 482.5,562C 481.191,558.981 480.191,555.815 479.5,552.5C 483.755,548.101 488.755,544.601 494.5,542C 509.914,529.339 519.247,513.172 522.5,493.5C 523.515,492.319 524.681,491.319 526,490.5C 532.744,489.522 539.244,487.689 545.5,485C 546.381,484.292 547.047,483.458 547.5,482.5 Z"/></g>
<g><path style="opacity:0.898" fill="#fefffe" d="M 19.5,483.5 C 28.061,484.84 36.561,486.507 45,488.5C 48.2099,507.714 56.7099,524.214 70.5,538C 76.695,542.93 83.3617,547.097 90.5,550.5C 90.8333,551.667 91.1667,552.833 91.5,554C 90.8333,557.667 90.1667,561.333 89.5,565C 90.5708,569.447 91.2375,573.947 91.5,578.5C 89.4727,578.662 87.4727,578.495 85.5,578C 57.8331,564.666 37.9998,543.832 26,515.5C 23.258,505.971 20.4247,496.471 17.5,487C 17.9783,485.697 18.645,484.531 19.5,483.5 Z"/></g>
<g><path style="opacity:0.962" fill="#fefffe" d="M 431.5,538.5 C 442.521,537.508 452.521,540.008 461.5,546C 472.345,566.974 467.012,582.307 445.5,592C 439.87,592.966 434.204,593.633 428.5,594C 380.665,594.347 332.832,594.847 285,595.5C 235.818,595.243 186.651,595.076 137.5,595C 127.937,594.364 119.271,591.364 111.5,586C 102.338,576.866 99.5044,566.033 103,553.5C 104.912,551.343 106.579,549.009 108,546.5C 111.411,543.585 115.244,541.419 119.5,540C 209.441,541.472 299.441,541.805 389.5,541C 403.605,539.886 417.605,539.053 431.5,538.5 Z"/></g>
</svg>
