<svg xmlns="http://www.w3.org/2000/svg" width="548" height="565" viewBox="0 0 548 565" version="1.1"><path d="M 290 18.008 C 280.227 18.956, 260.490 21.885, 255.884 23.070 C 253.895 23.581, 250.669 24, 248.715 24 C 246.760 24, 239.613 25.102, 232.831 26.449 C 218.266 29.342, 201.497 31.826, 194.500 32.127 C 191.750 32.246, 188.446 32.720, 187.158 33.182 C 180.743 35.479, 162.083 38.524, 146 39.898 C 139.675 40.439, 126.850 42.255, 117.500 43.934 C 108.150 45.613, 96.922 47.440, 92.549 47.994 C 80.512 49.520, 79.890 53.091, 91.006 56.845 C 94.329 57.967, 96.785 58.461, 96.464 57.942 C 96.118 57.382, 99.250 56.993, 104.191 56.983 C 116.326 56.957, 145.370 53.727, 175.500 49.051 C 185.950 47.429, 202.375 44.962, 212 43.567 C 221.625 42.173, 234.675 40.115, 241 38.993 C 247.325 37.872, 256.775 36.492, 262 35.928 C 267.225 35.364, 278.334 33.799, 286.687 32.451 C 308.478 28.934, 309.368 29.029, 354 39.584 C 359.775 40.950, 370.350 43.452, 377.500 45.143 C 410.368 52.918, 414.971 53.978, 422.208 55.442 L 429.917 57 437.587 55.859 L 445.258 54.719 447.309 52.359 C 448.731 50.724, 450.430 50, 452.847 50 C 454.764 50, 456.143 49.810, 455.911 49.578 C 455.475 49.142, 443.745 45.898, 433.750 43.449 C 432.512 43.146, 430.375 42.690, 429 42.436 C 423.609 41.440, 416.452 39.709, 415.542 39.181 C 414.663 38.671, 411.322 38.025, 408.250 37.770 C 407.563 37.713, 407 37.265, 407 36.774 C 407 36.284, 406.663 36.087, 406.250 36.337 C 405.438 36.830, 392.578 34.867, 384.500 33.018 C 381.750 32.388, 377.117 31.375, 374.203 30.766 C 371.290 30.157, 368.707 29.335, 368.463 28.940 C 368.219 28.545, 364.547 28.368, 360.303 28.548 C 355.738 28.740, 353.153 28.523, 353.974 28.016 L 355.362 27.158 351.688 26.469 C 349.668 26.090, 347.349 26.036, 346.535 26.348 C 345.721 26.661, 344.474 26.148, 343.765 25.208 C 342.036 22.918, 338.489 21, 335.981 21 C 334.856 21, 332.263 20.276, 330.218 19.391 C 325.090 17.171, 313.554 16.497, 308.611 18.129 L 304.646 19.437 304.240 18.219 C 303.803 16.908, 301.656 16.876, 290 18.008 M 503.883 121.250 C 503.623 135.224, 504.194 199.527, 504.582 199.916 C 504.812 200.145, 505 181.133, 505 157.667 C 505 122.008, 504.297 99.079, 503.883 121.250 M 429.500 123.548 C 425.650 124.276, 418.450 125.390, 413.500 126.023 C 408.550 126.655, 402.340 127.584, 399.701 128.087 C 397.061 128.589, 393.355 129, 391.465 129 C 389.575 129, 386.110 129.429, 383.764 129.954 C 379.187 130.978, 356.205 134.269, 341.500 136.006 C 336.550 136.590, 329.800 137.493, 326.500 138.011 C 323.200 138.530, 317.800 139.249, 314.500 139.611 C 311.200 139.972, 307.488 140.646, 306.250 141.109 L 304 141.950 304.203 154.725 L 304.405 167.500 304.953 155 L 305.500 142.500 310.500 141.846 C 313.250 141.486, 324.536 140.024, 335.579 138.597 C 346.623 137.170, 360.123 135.318, 365.579 134.481 C 371.036 133.644, 381.800 132.081, 389.500 131.008 C 401.466 129.340, 420.243 126.638, 435.605 124.373 L 439.709 123.768 440.421 138.712 C 440.812 146.932, 440.810 157.627, 440.416 162.480 L 439.700 171.303 440.850 170.593 L 442 169.882 442 147.141 L 442 124.400 440.800 123.200 C 439.387 121.787, 438.692 121.809, 429.500 123.548 M 368.952 291.750 C 367.162 293.262, 362.313 297.988, 358.177 302.250 C 354.041 306.512, 350.059 310, 349.328 310 C 348.598 310, 348 310.373, 348 310.830 C 348 311.286, 344.352 315.224, 339.893 319.580 C 323.922 335.183, 321.751 337.629, 315.388 347.183 C 306.611 360.360, 298.328 394.728, 302.841 399.241 C 303.307 399.707, 303.973 394.778, 304.322 388.288 C 305.581 364.878, 311.570 350.890, 327.139 335 C 343.708 318.089, 372.707 290.005, 373.553 290.052 C 374.074 290.080, 375.850 291.787, 377.500 293.846 C 379.150 295.905, 387.250 303.869, 395.500 311.544 C 427.382 341.206, 431.503 346.062, 437.073 360.526 L 440 368.127 440 379.564 C 440 387.441, 440.354 391, 441.137 391 L 442.275 391 441.739 379.250 C 440.723 356.953, 433.954 345.029, 409.522 322.500 C 404.751 318.100, 394.954 308.762, 387.752 301.750 C 373.333 287.710, 373.578 287.840, 368.952 291.750" stroke="none" fill="#c3fffc" fill-rule="evenodd"/><path d="M 290 16.470 C 284.775 17.237, 278.700 18.337, 276.500 18.916 L 272.500 19.969 276.500 19.491 C 278.700 19.228, 285.629 18.529, 291.898 17.937 L 303.296 16.860 304.071 18.115 L 304.847 19.371 308.887 18.037 C 311.532 17.164, 315.270 16.903, 319.713 17.281 L 326.500 17.858 324 16.825 C 319.959 15.155, 300.361 14.951, 290 16.470 M 37.230 63.493 C 24.229 67.135, 18.160 74.235, 13.938 90.741 L 12 98.320 12.008 248.910 C 12.016 411.617, 12.249 418.410, 17.781 417.262 C 18.421 417.129, 18.676 417.681, 18.357 418.512 C 18.025 419.376, 18.355 420.006, 19.143 420.015 L 20.500 420.031 19.319 420.781 L 18.139 421.532 20.156 424.016 C 21.266 425.382, 21.840 425.868, 21.432 425.095 C 20.943 424.169, 21.084 423.934, 21.845 424.405 C 22.480 424.797, 23.007 425.879, 23.015 426.809 L 23.031 428.500 23.877 427.165 L 24.723 425.831 25.268 427.917 C 25.631 429.305, 25.427 429.796, 24.657 429.385 C 24.021 429.046, 25.731 430.845, 28.458 433.384 C 31.185 435.923, 33.965 438, 34.637 438 C 35.308 438, 36.652 438.788, 37.623 439.750 L 39.388 441.500 38.698 439.678 C 38.318 438.675, 38.491 436.951, 39.083 435.846 L 40.158 433.836 38.329 432.355 L 36.500 430.874 37.750 430.354 C 39.305 429.706, 39.412 427.908, 37.875 428.250 C 37.256 428.388, 36.520 427.866, 36.239 427.091 C 35.884 426.114, 36.229 425.874, 37.364 426.309 C 38.264 426.655, 39 426.556, 39 426.091 C 39 424.497, 36.027 422.776, 34.371 423.411 L 32.717 424.046 33.981 422.523 L 35.245 421 33.961 419.453 L 32.677 417.905 31.744 419.203 L 30.811 420.500 31.348 418.818 C 31.643 417.894, 30.898 415.194, 29.692 412.818 L 27.500 408.500 27.241 252.706 L 26.981 96.912 29.703 91.354 C 37.613 75.200, 44.691 74.926, 92 88.946 C 104.527 92.659, 130.660 99.916, 148 104.497 C 179.478 112.814, 183.435 114.053, 188.875 117.296 L 194.250 120.500 199.213 127.500 C 201.943 131.350, 205.118 136.300, 206.269 138.500 L 208.361 142.500 208.434 231.500 C 208.475 280.450, 208.281 350.650, 208.004 387.500 L 207.500 454.500 204.597 459.500 C 203.001 462.250, 200.301 465.787, 198.597 467.361 C 196.894 468.934, 196.287 469.666, 197.250 468.988 C 199.261 467.571, 199.611 468.942, 197.750 470.947 C 196.947 471.812, 196.916 472.060, 197.665 471.640 C 198.305 471.281, 199.058 471.553, 199.338 472.244 L 199.848 473.500 200.833 472.088 L 201.818 470.676 203.300 472.157 L 204.782 473.639 203.801 475.391 L 202.820 477.144 204.660 479.241 L 206.500 481.339 204.609 480.647 L 202.717 479.954 204.002 481.502 L 205.287 483.050 207.074 481.433 C 208.057 480.543, 208.887 479.069, 208.918 478.158 C 209.047 474.332, 209.381 473.117, 210.169 473.605 C 210.629 473.889, 210.529 475.107, 209.948 476.311 L 208.890 478.500 210.445 476.559 C 211.300 475.491, 212 474.227, 212 473.750 C 212 473.273, 212.563 473.200, 213.250 473.588 L 214.500 474.293 213.250 472.947 C 212.563 472.206, 212.007 471.127, 212.015 470.550 C 212.024 469.972, 212.513 470.175, 213.102 471 L 214.173 472.500 213.680 470.250 C 212.967 466.994, 214.624 467.483, 215.808 470.878 C 216.360 472.461, 217.513 474.599, 218.372 475.628 C 219.230 476.658, 220.971 479.064, 222.240 480.976 C 223.509 482.888, 225.981 485.419, 227.734 486.600 C 229.486 487.781, 230.638 489.029, 230.293 489.373 C 229.949 489.718, 230.275 490, 231.018 490 C 232.212 490, 236.490 491.770, 243.815 495.294 C 246.648 496.657, 262.393 496.550, 270.530 495.114 C 273.813 494.534, 277.947 493.817, 279.717 493.521 C 281.486 493.225, 285.986 492.300, 289.717 491.465 C 296.844 489.871, 315.041 486.332, 321 485.382 C 325.724 484.629, 339.201 481.777, 358.500 477.445 C 367.300 475.470, 375.175 473.704, 376 473.520 C 385.329 471.439, 403.765 468.009, 408.500 467.474 C 414.684 466.775, 435.437 462.965, 456.500 458.662 C 463.100 457.314, 473 455.462, 478.500 454.547 C 510.156 449.281, 522.788 441.273, 530.723 421.441 L 533.500 414.500 533.769 256.500 C 533.951 148.913, 533.702 96.884, 532.986 93.435 C 530.457 81.249, 523.187 71.141, 512.940 65.564 L 507.699 62.711 500.905 62.225 C 492.511 61.625, 479.752 63.159, 457 67.504 C 433.736 71.948, 401.219 77.510, 387 79.479 C 380.675 80.355, 371.450 81.929, 366.500 82.976 C 361.550 84.023, 350.927 85.798, 342.892 86.921 C 334.858 88.044, 320.233 90.287, 310.392 91.907 C 300.552 93.526, 290.025 95.140, 287 95.492 C 283.975 95.844, 273.175 97.476, 263 99.118 L 244.500 102.104 238.424 105.029 C 232.518 107.872, 225.740 114.126, 218.419 123.488 L 215.337 127.428 211.638 120.813 C 203.135 105.608, 198.547 103.304, 150 89.852 C 145.875 88.709, 134.439 85.350, 124.587 82.387 C 114.735 79.424, 106.065 77, 105.319 77 C 104.573 77, 99.134 75.439, 93.232 73.532 C 63.976 64.077, 46.395 60.926, 37.230 63.493 M 477.500 80.057 C 459.174 83.555, 458.584 83.660, 422 89.890 C 353.842 101.497, 330.534 105.197, 295 110.049 C 286.475 111.213, 277.925 112.562, 276 113.046 C 274.075 113.530, 267.599 114.388, 261.608 114.951 L 250.716 115.976 244.608 119.316 C 237.585 123.156, 230.561 131.130, 225.918 140.533 L 222.940 146.565 223.225 301.533 L 223.510 456.500 225.505 462.021 C 228.544 470.433, 232.676 475.496, 239.500 479.175 L 245.500 482.409 250.500 482.309 C 257.091 482.178, 285.628 477.444, 294.500 475.010 C 298.350 473.953, 307.672 471.960, 315.216 470.581 C 322.760 469.201, 333.560 466.943, 339.216 465.563 C 344.872 464.183, 353.775 462.335, 359 461.457 C 364.225 460.579, 371.875 459.040, 376 458.039 C 380.125 457.037, 387.775 455.457, 393 454.529 C 398.225 453.600, 410.600 451.314, 420.500 449.449 C 430.400 447.583, 442.775 445.386, 448 444.566 C 453.225 443.746, 460.650 442.363, 464.500 441.492 C 468.350 440.622, 476.638 439.041, 482.918 437.979 C 503.155 434.558, 511.049 429.864, 516.869 417.790 C 520.674 409.897, 520.776 405.363, 520.636 250 L 520.500 99.500 517.910 94 C 510.177 77.580, 503.159 75.159, 477.500 80.057 M 458 102.140 C 454.425 102.631, 445.650 104.130, 438.500 105.471 C 431.350 106.812, 418.750 108.866, 410.500 110.036 C 402.250 111.206, 389.763 113.240, 382.752 114.556 C 375.740 115.872, 362.690 117.872, 353.752 119.001 C 344.813 120.130, 335.025 121.503, 332 122.052 C 328.975 122.601, 320.425 123.714, 313 124.525 C 305.575 125.336, 294.824 126.751, 289.108 127.670 L 278.717 129.339 276.202 131.503 L 273.686 133.667 273.780 136.970 C 273.919 141.873, 277.770 143.914, 287 143.976 L 290.500 144 290.500 164.750 L 290.500 185.500 293.293 193.500 C 294.830 197.900, 297.080 203.385, 298.293 205.690 C 299.507 207.994, 301.605 212.044, 302.957 214.690 C 305.383 219.441, 328.098 243.025, 340.127 253.282 C 365.764 275.142, 365.795 275.658, 342.804 297.873 C 336.330 304.127, 331.320 309.709, 331.671 310.277 C 332.022 310.845, 331.850 311.025, 331.289 310.679 C 329.987 309.874, 311.088 329.307, 304.232 338.500 C 298.559 346.107, 293.745 357.350, 291.407 368.448 L 289.944 375.396 290.032 403.428 C 290.081 418.846, 289.756 431.546, 289.310 431.651 C 288.865 431.757, 286.337 432.135, 283.693 432.491 L 278.886 433.140 276.947 436.320 C 273.091 442.643, 275.441 447.994, 282.079 448.007 C 287.650 448.018, 331.513 443.061, 344.500 440.953 C 351.100 439.881, 363.330 438.324, 371.677 437.491 C 380.024 436.659, 392.174 434.864, 398.677 433.502 C 405.180 432.140, 421.075 429.649, 434 427.966 C 469.732 423.313, 470.217 423.228, 472.948 421.191 C 480.725 415.391, 475.229 409, 462.464 409 L 456.226 409 456.330 389.750 L 456.435 370.500 454.657 364 C 452.473 356.009, 444.435 339.104, 442.460 338.346 C 441.663 338.040, 441.242 337.417, 441.524 336.961 C 442.105 336.021, 430.943 324.578, 407.242 301.819 C 380.874 276.499, 380.598 278.626, 414.753 243.940 C 442.625 215.633, 450.704 203.316, 454.617 183.164 L 456.106 175.500 455.883 147.073 L 455.660 118.646 457.580 117.893 C 458.636 117.479, 461.442 117.109, 463.816 117.070 C 473.871 116.907, 478.189 110.035, 472.077 103.923 C 468.954 100.800, 468.327 100.721, 458 102.140 M 429.500 123.548 C 425.650 124.276, 418.450 125.390, 413.500 126.023 C 408.550 126.655, 402.340 127.584, 399.701 128.087 C 397.061 128.589, 393.355 129, 391.465 129 C 389.575 129, 386.110 129.429, 383.764 129.954 C 379.187 130.978, 356.205 134.269, 341.500 136.006 C 336.550 136.590, 329.800 137.493, 326.500 138.011 C 323.200 138.530, 317.800 139.249, 314.500 139.611 C 311.200 139.972, 307.461 140.657, 306.190 141.132 L 303.880 141.996 304.058 156.248 C 304.546 195.223, 307.898 202.192, 342.901 237 C 354.240 248.275, 365.681 259.975, 368.327 263 L 373.137 268.500 375.102 266 C 378.711 261.411, 389.389 249.840, 400.214 238.788 C 406.106 232.771, 413.756 224.622, 417.214 220.679 C 420.671 216.735, 424.735 212.156, 426.245 210.504 C 427.755 208.852, 428.993 207.195, 428.995 206.821 C 428.998 206.448, 429.613 205.530, 430.362 204.780 C 433.572 201.571, 438.088 189.376, 440.001 178.754 L 442 167.650 442 146.025 L 442 124.400 440.800 123.200 C 439.387 121.787, 438.692 121.809, 429.500 123.548 M 94.875 182.106 C 94.806 188.648, 94.694 194.787, 94.625 195.750 L 94.500 197.500 101 199.677 C 104.575 200.874, 108.902 201.887, 110.615 201.927 L 113.730 202 113.774 188.052 L 113.819 174.104 108.159 173.019 C 105.047 172.422, 100.813 171.546, 98.750 171.073 L 95 170.213 94.875 182.106 M 123.643 181.587 C 123.289 184.168, 123 190.409, 123 195.457 L 123 204.634 130.250 206.263 C 134.238 207.159, 138.963 208.177, 140.750 208.525 L 144 209.159 144 195.125 L 144 181.091 140.250 180.480 C 133.622 179.402, 127.539 178.144, 125.891 177.512 L 124.286 176.896 123.643 181.587 M 94.393 212.582 C 94.727 213.452, 95 218.985, 95 224.877 L 95 235.591 103.742 237.720 C 108.550 238.891, 112.549 239.770, 112.628 239.674 C 112.707 239.579, 112.936 233.899, 113.136 227.053 L 113.500 214.607 105 212.849 C 94.284 210.633, 93.639 210.617, 94.393 212.582 M 123.629 217.524 C 123.283 218.426, 123 224.448, 123 230.908 L 123 242.652 132.750 244.342 C 138.113 245.271, 142.838 246.025, 143.250 246.016 C 143.662 246.007, 144 240.481, 144 233.735 L 144 221.471 135.750 219.381 C 131.213 218.232, 126.771 216.976, 125.879 216.589 C 124.828 216.133, 124.037 216.462, 123.629 217.524 M 368.952 291.750 C 367.162 293.262, 362.313 297.988, 358.177 302.250 C 354.041 306.512, 350.059 310, 349.328 310 C 348.598 310, 348 310.373, 348 310.830 C 348 311.286, 344.352 315.224, 339.893 319.580 C 323.922 335.183, 321.751 337.629, 315.388 347.183 C 306.493 360.537, 298.495 393.962, 302.893 399.399 C 303.383 400.004, 303.983 406.913, 304.227 414.752 C 304.768 432.139, 304.096 431.345, 316.393 429.123 C 319.634 428.537, 322.577 428.239, 322.934 428.459 C 323.291 428.680, 328.064 428.205, 333.542 427.403 C 339.019 426.601, 346.875 425.543, 351 425.051 C 361.503 423.797, 379.030 421.202, 388.500 419.500 C 392.900 418.708, 404.825 416.904, 415 415.490 C 425.175 414.076, 434.957 412.693, 436.738 412.416 C 441.329 411.704, 441.503 410.807, 441.475 388 L 441.450 367.500 439.698 363 C 433.449 346.949, 427.770 339.327, 409.522 322.500 C 404.751 318.100, 394.954 308.762, 387.752 301.750 C 373.333 287.710, 373.578 287.840, 368.952 291.750 M 93.886 311.133 C 93.823 316.285, 93.632 321.653, 93.460 323.061 C 93.289 324.470, 93.453 326.086, 93.824 326.652 C 94.668 327.936, 110.055 333.278, 110.791 332.542 C 111.726 331.607, 112.278 316.380, 111.580 310.793 L 110.911 305.441 105.206 304.243 C 102.068 303.584, 98.263 302.758, 96.750 302.406 L 94 301.767 93.886 311.133 M 124.343 313.697 C 124.680 316.889, 124.546 322.643, 124.046 326.485 C 122.928 335.066, 121.119 333.794, 140.334 337.936 L 144.168 338.762 143.462 325.631 C 142.629 310.151, 143.712 312.178, 135.350 310.456 C 131.582 309.680, 127.427 308.786, 126.115 308.470 L 123.730 307.894 124.343 313.697 M 93.809 353.493 C 93.621 361.221, 93.892 366.443, 94.500 366.827 C 96.843 368.305, 112.051 372.727, 112.468 372.051 C 112.720 371.644, 112.651 365.231, 112.315 357.801 L 111.705 344.291 105.602 343.111 C 102.246 342.462, 98.289 341.674, 96.809 341.360 L 94.117 340.789 93.809 353.493 M 123.591 347.742 C 123.266 348.067, 123 354.462, 123 361.952 L 123 375.571 131.250 377.367 C 135.787 378.354, 140.175 379.238, 141 379.331 L 142.500 379.500 142.777 365.928 L 143.054 352.356 138.277 351.205 C 135.650 350.572, 131.404 349.401, 128.841 348.603 C 126.279 347.804, 123.917 347.417, 123.591 347.742 M 111.689 450.694 C 110.941 451.905, 112.708 452.843, 118 454.046 C 131.103 457.024, 138.940 459.288, 138.516 459.974 C 138.244 460.414, 138.579 460.754, 139.261 460.730 C 142.566 460.611, 144.061 461.093, 143.450 462.081 C 143.082 462.676, 141.733 462.899, 140.452 462.577 C 139.171 462.256, 137.914 462.332, 137.659 462.746 C 137.404 463.161, 138.486 463.593, 140.065 463.707 C 141.643 463.821, 143.201 463.484, 143.526 462.957 C 143.852 462.431, 145.243 462, 146.618 462 C 148.011 462, 148.847 462.438, 148.507 462.989 C 148.144 463.577, 148.595 463.709, 149.622 463.315 L 151.347 462.653 150.766 464.167 C 149.792 466.707, 154.923 471, 158.933 471 L 160.937 471 160.329 472.584 L 159.722 474.168 158.861 472.834 L 158 471.500 157.167 472.789 C 156.586 473.688, 155.604 473.813, 153.917 473.203 C 152.588 472.722, 150.375 472.659, 149 473.064 C 147.625 473.469, 145.600 473.839, 144.500 473.885 L 142.500 473.969 144 473 L 145.500 472.031 143.167 472.015 C 135.954 471.968, 160.299 481.900, 178.425 486.400 L 181.349 487.126 180.089 485.607 C 179.395 484.771, 179.098 483.650, 179.428 483.116 C 180.045 482.118, 178.901 481.633, 173.250 480.495 L 170 479.841 170 477.480 C 170 476.181, 169.570 474.852, 169.044 474.527 C 168.518 474.202, 168.341 473.275, 168.651 472.468 C 168.960 471.661, 168.828 470.962, 168.357 470.917 C 167.886 470.871, 166.495 470.722, 165.267 470.585 L 163.035 470.337 164.140 471.668 L 165.245 473 163.122 473 C 161.955 473, 161.112 472.477, 161.250 471.839 C 161.387 471.200, 160.375 470.345, 159 469.938 L 156.500 469.199 158.500 469.021 L 160.500 468.842 159.018 468.260 C 157.008 467.472, 155 465.378, 155 464.071 C 155 462.591, 153.279 462.722, 152.662 464.250 C 152.324 465.088, 152.132 464.995, 152.079 463.966 C 152.025 462.909, 148.970 461.541, 142.250 459.563 C 136.887 457.986, 129.189 455.671, 125.143 454.420 C 121.097 453.168, 117.086 452.414, 116.229 452.742 L 114.672 453.340 115.500 452 L 116.328 450.660 114.729 451.274 C 113.849 451.611, 112.958 451.373, 112.748 450.743 L 112.366 449.599 111.689 450.694" stroke="none" fill="#fffdf8" fill-rule="evenodd"/><path d="M 389.428 346.674 C 385.205 348.941, 381.812 349.120, 379.510 347.195 L 377.500 345.514 379.759 348.081 C 381.002 349.493, 381.677 351.025, 381.259 351.485 C 380.842 351.944, 381.031 352.016, 381.681 351.644 C 382.330 351.272, 383.144 351.425, 383.490 351.984 C 383.835 352.543, 383.566 353, 382.892 353 C 382.218 353, 381.940 353.273, 382.273 353.607 C 382.607 353.940, 382.441 354.728, 381.906 355.357 C 381.370 355.985, 380.239 357.400, 379.392 358.500 C 378.545 359.600, 378.137 359.938, 378.485 359.250 C 379.200 357.838, 378.033 357.785, 370.355 358.880 L 365.211 359.614 365.674 358.408 C 365.928 357.745, 365.586 356.862, 364.914 356.447 C 364.241 356.031, 363.938 356.098, 364.241 356.595 C 364.543 357.093, 364.162 358.080, 363.395 358.789 L 362 360.079 361.882 358.789 C 361.816 358.080, 361.828 357.129, 361.906 356.676 C 361.985 356.222, 361.620 356.117, 361.094 356.442 C 360.568 356.767, 360.326 358.066, 360.555 359.330 L 360.972 361.628 357.150 363.314 C 355.048 364.241, 352.692 365.003, 351.914 365.006 C 351.136 365.010, 349.150 365.724, 347.500 366.593 L 344.500 368.174 326.290 368.202 L 308.079 368.230 306.823 371.865 C 305.558 375.528, 304.977 396.298, 306.108 397.437 C 306.708 398.042, 312.161 395.740, 319 391.994 C 330.474 385.711, 352.638 376.132, 359.500 374.491 C 365.251 373.115, 376.532 371.780, 381 371.945 C 383.475 372.037, 387.032 372.114, 388.904 372.116 C 391.934 372.120, 398.804 374.102, 410.259 378.278 C 412.327 379.032, 413.714 379.953, 413.342 380.324 C 412.677 380.990, 415.235 381.408, 417.824 381.058 C 418.552 380.959, 419.695 381.332, 420.363 381.887 C 421.598 382.911, 437.484 389, 438.923 389 C 439.874 389, 439.476 369.579, 438.492 367.987 C 438.110 367.369, 437.168 367.105, 436.399 367.400 C 435.629 367.696, 435 367.576, 435 367.135 C 435 366.694, 434.438 366.287, 433.750 366.231 C 424.796 365.496, 416.950 363.279, 419.756 362.278 C 420.447 362.031, 420.768 361.434, 420.470 360.951 C 420.171 360.468, 420.843 359.157, 421.964 358.036 L 424 356 421 356 C 419.350 356, 418 355.550, 418 355 C 418 354.450, 418.528 354, 419.174 354 C 419.820 354, 419.292 352.875, 418 351.500 L 415.651 349 417.885 349 C 419.143 349, 419.844 348.556, 419.490 347.984 C 419.144 347.425, 418.513 347.183, 418.087 347.446 C 417.661 347.710, 415.780 347.521, 413.906 347.027 C 412.033 346.533, 406.418 345.898, 401.428 345.616 L 392.356 345.103 389.428 346.674 M 473.020 370.737 C 473.031 372.256, 473.457 376.386, 473.967 379.914 C 474.477 383.442, 474.532 387.042, 474.088 387.914 C 473.645 388.786, 473.011 390.931, 472.680 392.680 L 472.078 395.859 476.289 397.305 C 478.605 398.100, 480.403 399.210, 480.284 399.772 C 480.163 400.348, 481.001 400.551, 482.203 400.237 L 484.337 399.679 483.748 401.215 C 483.367 402.206, 483.702 402.707, 484.691 402.626 C 485.534 402.557, 486.571 403.175, 486.996 404 C 488.315 406.562, 489.844 410.392, 490.569 412.953 C 491.323 415.615, 493.411 418.117, 494.696 417.899 C 496.817 417.540, 498.049 418.111, 497.405 419.155 C 496.952 419.886, 497.131 420.037, 497.894 419.565 L 499.097 418.822 497.926 417.411 C 497.221 416.561, 497.158 416, 497.769 416 C 499.416 416, 502.221 407.863, 502.249 403 C 502.304 393.778, 501.990 391.333, 500.750 391.312 C 500.063 391.300, 497.025 390.800, 494 390.200 C 490.975 389.601, 485.631 388.810, 482.124 388.442 C 478.538 388.067, 476.287 387.441, 476.980 387.012 L 478.214 386.250 477.117 385.572 L 476.020 384.894 477.260 383.552 C 477.942 382.814, 478.837 382.414, 479.250 382.664 C 479.663 382.914, 480 382.384, 480 381.487 L 480 379.855 485.250 380.013 C 493.152 380.250, 493.289 380.213, 492.710 378 C 492.423 376.900, 492.622 376, 493.153 376 C 493.684 376, 493.809 375.500, 493.431 374.888 C 493.053 374.277, 493.318 373.421, 494.020 372.987 C 494.756 372.533, 491.970 371.887, 487.443 371.463 C 483.124 371.058, 478.107 370.107, 476.295 369.350 L 473 367.973 473.020 370.737 M 42.309 389.345 C 43.427 409.959, 46.209 413.037, 70 419.978 C 74.125 421.181, 80.650 423.281, 84.500 424.645 C 94.727 428.267, 118.978 436.280, 130.500 439.845 C 136 441.547, 149.275 445.697, 160 449.069 C 170.725 452.440, 180.907 455.422, 182.628 455.694 L 185.755 456.190 189.049 453.248 L 192.342 450.305 192.679 423.119 L 193.015 395.932 191.007 393.778 C 189.790 392.471, 189 392.137, 189 392.928 C 189 393.741, 188.246 394.036, 187.001 393.711 C 185.902 393.423, 184.750 393.596, 184.442 394.094 C 184.134 394.592, 181.010 395, 177.500 395 C 173.990 395, 170.826 395.472, 170.470 396.049 C 170.025 396.769, 169.395 396.742, 168.455 395.962 C 166.466 394.312, 165.450 395.382, 165.179 399.410 L 164.940 402.960 166.470 402.373 C 167.477 401.987, 168 402.372, 168 403.500 C 168 404.586, 167.469 405.010, 166.551 404.658 C 165.682 404.324, 164.861 404.861, 164.500 406 C 164.169 407.044, 163.021 408.176, 161.949 408.516 C 160.877 408.856, 160 409.496, 160 409.938 C 160 410.967, 154.163 409.862, 136.054 405.405 C 113.012 399.734, 96.221 394.496, 69.500 384.644 C 61.146 381.564, 50.978 378.954, 45.602 378.511 L 41.704 378.190 42.309 389.345 M 240.771 388.562 C 238.157 391.177, 242.527 393.961, 248.944 393.770 C 250.839 393.713, 252.555 394.166, 252.759 394.777 C 252.963 395.388, 253.730 395.657, 254.463 395.376 C 255.197 395.094, 256.095 395.344, 256.458 395.932 C 256.821 396.519, 258.104 397.016, 259.309 397.035 C 260.514 397.055, 262.625 397.761, 264 398.605 L 266.500 400.138 264.500 399.567 L 262.500 398.995 264.441 400.498 C 266.764 402.295, 266.032 402.427, 262.547 400.839 C 261.146 400.201, 260 399.301, 260 398.839 C 260 398.378, 259.553 398, 259.006 398 C 258.460 398, 258.174 399.012, 258.372 400.250 C 258.620 401.802, 259.394 402.475, 260.866 402.421 C 262.040 402.377, 263 402.762, 263 403.276 C 263 403.822, 258.315 404.063, 251.750 403.856 L 240.500 403.500 240.234 430.851 L 239.967 458.202 243.927 462.045 C 249.034 467.001, 253.142 467.800, 261.664 465.493 C 269.979 463.242, 270.587 461.703, 265.048 456.932 C 262.609 454.831, 261.041 452.742, 261.431 452.112 C 261.809 451.500, 261.633 451, 261.041 451 C 260.332 451, 260.105 448.476, 260.375 443.610 L 260.786 436.221 263.439 431.695 C 266.633 426.243, 267.858 425.161, 272.741 423.467 L 276.500 422.163 276.408 419.331 C 276.358 417.774, 275.705 413.350, 274.959 409.500 C 274.212 405.650, 273.688 400.337, 273.796 397.694 C 273.916 394.715, 273.612 393.122, 272.995 393.503 C 272.434 393.850, 272 393.002, 272 391.559 C 272 390.152, 271.438 388.969, 270.750 388.932 C 260.655 388.380, 241.193 388.140, 240.771 388.562" stroke="none" fill="#0b7ac9" fill-rule="evenodd"/><path d="M 11.472 163.500 C 11.472 199.250, 11.597 213.730, 11.750 195.677 C 11.902 177.625, 11.902 148.375, 11.749 130.677 C 11.596 112.980, 11.471 127.750, 11.472 163.500 M 42.465 161 C 42.465 189.325, 42.593 200.913, 42.749 186.750 C 42.906 172.588, 42.906 149.413, 42.749 135.250 C 42.593 121.088, 42.465 132.675, 42.465 161 M 192.245 266.083 C 192.110 310.404, 191.753 346.914, 191.451 347.216 C 191.149 347.518, 189.212 347.386, 187.148 346.922 C 185.083 346.458, 179.143 345.948, 173.947 345.789 L 164.500 345.500 164.365 347 C 164.291 347.825, 164.179 352.797, 164.115 358.050 L 164 367.600 161.277 371.800 C 159.779 374.110, 158.204 376, 157.777 376 C 156.504 376, 156.858 350.136, 158.164 347.684 L 159.327 345.500 157.664 346.872 L 156 348.245 155.835 345.872 C 155.745 344.568, 155.716 342.150, 155.771 340.500 C 156.221 327, 155.848 309.551, 155.080 308.178 C 154.434 307.025, 154.197 308.691, 154.320 313.500 C 154.419 317.350, 154.366 326.125, 154.203 333 C 154.040 339.875, 154.404 348.875, 155.013 353 C 155.622 357.125, 155.980 366.454, 155.810 373.730 L 155.500 386.960 152.754 389.704 L 150.008 392.447 145.754 392.406 C 143.414 392.384, 132.950 390.005, 122.500 387.119 C 112.050 384.233, 100.125 380.979, 96 379.888 C 82.193 376.235, 82.178 376.196, 82.697 344.998 C 82.903 332.624, 82.704 320.475, 82.255 318 L 81.438 313.500 81.218 329 C 80.672 367.326, 80.803 366.420, 76.277 363.197 C 73.017 360.876, 72.256 356.699, 74.142 351.484 L 75.333 348.190 73.884 346.742 C 73.088 345.945, 71.610 343.461, 70.601 341.223 L 68.765 337.153 67.133 337.764 L 65.500 338.374 66.845 336.721 C 68.716 334.419, 67.891 332.764, 64.702 332.425 C 62 332.136, 60.868 334.182, 63 335.500 C 63.550 335.840, 63.993 337.104, 63.985 338.309 C 63.974 339.810, 63.715 340.099, 63.161 339.226 L 62.353 337.953 60.489 340.012 C 59.465 341.144, 58.035 341.844, 57.313 341.567 C 55.776 340.977, 55.514 342.592, 57.025 343.342 C 57.589 343.621, 57.476 343.736, 56.775 343.598 C 56.074 343.459, 55.360 341.683, 55.188 339.652 C 54.794 334.979, 53 335.887, 53 340.759 L 53 344.400 51.800 343.200 C 49.936 341.336, 49 341.770, 49 344.500 C 49 345.875, 48.550 347, 48 347 C 47.450 347, 46.961 347.788, 46.914 348.750 C 46.586 355.431, 44.745 342.167, 44.635 332.333 C 44.561 325.642, 44.163 319.829, 43.750 319.417 C 43.337 319.004, 42.927 302.204, 42.839 282.083 L 42.677 245.500 41.923 276.470 C 41.509 293.504, 41.469 323.385, 41.835 342.873 L 42.500 378.305 46 378.562 C 50.899 378.921, 61.232 381.595, 69.500 384.644 C 96.221 394.496, 113.012 399.734, 136.054 405.405 C 154.163 409.862, 160 410.967, 160 409.938 C 160 409.496, 160.877 408.856, 161.949 408.516 C 163.021 408.176, 164.169 407.044, 164.500 406 C 164.861 404.861, 165.682 404.324, 166.551 404.658 C 167.469 405.010, 168 404.586, 168 403.500 C 168 402.372, 167.477 401.987, 166.470 402.373 L 164.940 402.960 165.179 399.410 C 165.450 395.382, 166.466 394.312, 168.455 395.962 C 169.395 396.742, 170.025 396.769, 170.470 396.049 C 170.826 395.472, 173.990 395, 177.500 395 C 181.010 395, 184.134 394.592, 184.442 394.094 C 184.750 393.596, 185.902 393.423, 187.001 393.711 C 188.272 394.043, 189.012 393.736, 189.032 392.867 C 189.053 391.954, 189.548 392.140, 190.521 393.427 C 193.017 396.725, 193.015 396.792, 192.750 289.912 L 192.491 185.500 192.245 266.083 M 237.401 255.500 C 237.726 265.950, 238.034 314.325, 238.084 363 C 238.176 450.778, 239.039 480.949, 240 430 L 240.500 403.500 251.750 403.856 C 258.315 404.063, 263 403.822, 263 403.276 C 263 402.762, 262.040 402.377, 260.866 402.421 C 259.394 402.475, 258.620 401.802, 258.372 400.250 C 258.174 399.012, 258.460 398, 259.006 398 C 259.553 398, 260 398.378, 260 398.839 C 260 399.301, 261.146 400.201, 262.547 400.839 C 266.032 402.427, 266.764 402.295, 264.441 400.498 L 262.500 398.995 264.500 399.567 L 266.500 400.138 264 398.605 C 262.625 397.761, 260.514 397.055, 259.309 397.035 C 258.104 397.016, 256.821 396.519, 256.458 395.932 C 256.095 395.344, 255.197 395.094, 254.463 395.376 C 253.730 395.657, 252.954 395.362, 252.740 394.719 C 252.507 394.021, 250.568 393.627, 247.925 393.741 C 242.813 393.961, 241.337 393.285, 240.850 390.500 L 240.500 388.500 254.500 388.500 C 271.585 388.500, 272 388.575, 272 391.676 C 272 393.075, 272.434 393.850, 273.016 393.490 C 273.575 393.144, 273.858 392.555, 273.645 392.181 C 269.436 384.796, 280.032 348.151, 291.081 331.881 C 293.464 328.372, 295.306 325.372, 295.173 325.216 C 295.040 325.060, 302.783 317.072, 312.379 307.466 C 321.975 297.860, 329.628 290, 329.387 290 C 328.840 290, 322.198 295.897, 320.153 298.199 C 319.323 299.133, 318.270 299.667, 317.815 299.385 C 317.359 299.104, 316.677 299.689, 316.299 300.687 C 315.545 302.677, 313.505 305, 312.511 305 C 311.858 305, 301.858 315.026, 296.428 321.122 C 294.739 323.019, 293.560 325.180, 293.808 325.925 C 294.079 326.738, 293.809 327, 293.130 326.580 C 292.475 326.175, 292 326.537, 292 327.441 C 292 328.298, 291.626 329, 291.169 329 C 290.712 329, 289.718 330.238, 288.959 331.750 C 288.201 333.262, 286.150 336.525, 284.402 339 C 282.654 341.475, 280.604 345.300, 279.845 347.500 C 279.087 349.700, 278.008 352.284, 277.448 353.242 L 276.430 354.984 273.332 354.095 C 271.629 353.607, 263.785 353.138, 255.901 353.054 C 248.018 352.970, 241.338 352.672, 241.058 352.391 C 240.154 351.488, 239.796 339.512, 239.142 288.332 C 238.789 260.740, 238.120 237.790, 237.655 237.332 C 237.191 236.875, 237.076 245.050, 237.401 255.500 M 415.507 288.596 C 421.454 294.456, 441.886 313.442, 443.922 315 C 458.481 326.143, 473.027 364.189, 471.698 387.653 L 471.112 398 473.240 398 C 476.443 398, 483.728 401.839, 485.996 404.722 C 487.249 406.314, 488 406.724, 488 405.815 C 488 403.203, 481.274 398.661, 474.286 396.555 L 472.072 395.888 472.677 392.694 C 473.010 390.937, 473.645 388.786, 474.088 387.914 C 474.532 387.042, 474.477 383.442, 473.967 379.914 C 473.457 376.386, 473.031 372.256, 473.020 370.737 L 473 367.973 476.295 369.350 C 478.107 370.107, 483.124 371.058, 487.443 371.463 C 491.970 371.887, 494.756 372.533, 494.020 372.987 C 493.318 373.421, 493.053 374.277, 493.431 374.888 C 493.809 375.500, 493.684 376, 493.153 376 C 492.622 376, 492.423 376.900, 492.710 378 C 493.289 380.213, 493.152 380.250, 485.250 380.013 L 480 379.855 480 381.487 C 480 382.384, 479.663 382.914, 479.250 382.664 C 478.837 382.414, 477.942 382.814, 477.260 383.552 L 476.020 384.894 477.117 385.572 L 478.214 386.250 476.980 387.012 C 476.287 387.441, 478.538 388.067, 482.124 388.442 C 485.631 388.810, 490.975 389.601, 494 390.200 C 497.025 390.800, 500.063 391.300, 500.750 391.312 C 501.990 391.333, 502.304 393.778, 502.249 403 C 502.221 407.775, 499.426 416, 497.832 416 C 497.310 416, 497.143 416.423, 497.463 416.939 C 498.311 418.312, 493.723 417.789, 492.237 416.344 C 491.542 415.669, 490.696 413.731, 490.357 412.037 C 489.257 406.534, 488.490 408.025, 488.915 414.842 C 489.143 418.504, 489.515 420.707, 489.741 419.738 C 490.201 417.762, 492 418.361, 492 420.489 C 492 421.244, 490.988 422.056, 489.750 422.294 L 487.500 422.728 490.215 422.864 C 493.646 423.036, 499.340 418.179, 502.255 412.595 L 504.391 408.500 504.446 400.500 C 504.609 376.513, 503.704 345.819, 502.943 349.500 C 502.488 351.700, 502.089 357.212, 502.058 361.750 L 502 370 500.567 370 C 498.589 370, 498.230 368.355, 496.979 353.526 C 496.377 346.390, 495.686 340.353, 495.442 340.109 C 495.199 339.866, 495 340.144, 495 340.726 C 495 343.851, 485.179 341.757, 483.907 338.361 L 483.210 336.500 482.260 338.948 L 481.309 341.397 480.806 338.763 C 480.162 335.396, 481.173 333.800, 484.140 333.496 C 485.438 333.364, 487.175 333.184, 488 333.097 L 489.500 332.939 487.945 332.029 C 487.089 331.528, 481.725 330.797, 476.024 330.404 L 465.658 329.691 463.376 332.553 L 461.093 335.416 461.254 333.277 C 461.343 332.101, 461.828 331.220, 462.333 331.319 C 462.837 331.419, 463.480 330.825, 463.762 330 C 464.043 329.175, 463.916 328.834, 463.479 329.241 C 463.042 329.649, 462.127 329.521, 461.447 328.956 C 460.767 328.392, 459.826 328.017, 459.355 328.124 C 457.693 328.500, 455.020 326.776, 455.660 325.741 C 456.041 325.125, 455.828 324.988, 455.147 325.409 C 454.476 325.824, 453.694 325.362, 453.293 324.313 C 452.912 323.316, 451.144 320.998, 449.365 319.163 C 447.376 317.112, 446.333 315.186, 446.659 314.163 C 447.011 313.059, 446.898 312.898, 446.325 313.685 C 445.723 314.512, 442.744 312.304, 436.481 306.390 C 414.739 285.858, 400.274 273.588, 415.507 288.596 M 389.485 306.795 C 390.534 308.058, 393.891 311.630, 396.946 314.734 C 400.001 317.838, 402.500 320.699, 402.500 321.092 C 402.500 322.477, 409.077 328.071, 410.021 327.487 C 410.552 327.159, 410.712 327.586, 410.382 328.448 C 410.054 329.302, 410.176 330, 410.652 330 C 411.129 330, 412.047 330.845, 412.691 331.878 L 413.864 333.755 412.182 333.628 C 411.257 333.557, 410.624 334.096, 410.775 334.824 C 410.926 335.553, 410.587 335.863, 410.022 335.514 C 409.326 335.083, 409.350 334.215, 410.097 332.819 C 410.713 331.667, 410.766 331.026, 410.217 331.366 C 409.677 331.700, 408.024 331.020, 406.545 329.857 L 403.854 327.740 398.236 327.870 C 394.705 327.951, 392.323 327.535, 391.824 326.750 L 391.031 325.500 391.015 326.750 C 391.007 327.438, 390.354 328, 389.563 328 C 388.694 328, 387.964 329.283, 387.715 331.250 L 387.303 334.500 386.553 332.319 C 386.069 330.912, 385.265 330.345, 384.285 330.721 L 382.767 331.303 383.884 329.217 C 385.232 326.698, 384.093 323.258, 381.080 320.750 C 378.100 318.270, 377.904 318.526, 379.624 322.642 C 381.495 327.120, 380.760 330.563, 377.761 331.367 C 367.703 334.062, 360.275 325.943, 366.950 319.548 L 369.900 316.722 373.472 317.302 C 375.437 317.621, 376.815 317.510, 376.535 317.056 C 376.254 316.602, 374.556 316.010, 372.762 315.740 L 369.500 315.249 365.740 319.177 C 363.120 321.915, 362.107 323.771, 362.401 325.303 C 363.036 328.620, 364.122 331, 365 331 C 366.453 331, 367.082 334.331, 365.784 335.155 C 364.055 336.252, 362.750 336.213, 363.447 335.085 C 364.384 333.570, 361.613 333.163, 359.980 334.577 L 358.460 335.893 354.480 334.970 C 352.291 334.463, 348.835 334.037, 346.799 334.024 C 341.433 333.989, 332.891 331.985, 333.552 330.916 C 335.434 327.871, 331.342 330.948, 326.201 336.444 C 318.310 344.879, 314.325 350.781, 310.312 359.972 C 307.337 366.784, 305.830 372.346, 307.765 369.370 C 308.265 368.602, 314.259 368.229, 326.500 368.204 L 344.500 368.167 347.500 366.590 C 349.150 365.722, 351.136 365.010, 351.914 365.006 C 352.692 365.003, 355.048 364.241, 357.150 363.314 L 360.972 361.628 360.555 359.330 C 360.093 356.782, 361.656 355.052, 362.174 357.538 L 362.500 359.100 364.500 357.476 C 365.600 356.583, 366.039 356.074, 365.476 356.345 C 364.857 356.643, 364.461 355.128, 364.476 352.519 C 364.489 350.143, 364.747 348.351, 365.050 348.535 C 365.352 348.720, 366.144 348, 366.808 346.935 L 368.017 345 366.842 345 C 366.195 345, 365.854 344.814, 366.083 344.587 C 366.313 344.360, 368.525 344.607, 371 345.137 C 373.475 345.667, 376.250 346.217, 377.167 346.359 C 378.083 346.501, 379.526 347.192, 380.373 347.894 C 381.220 348.597, 382.452 348.839, 383.111 348.432 C 383.935 347.922, 384.046 348.117, 383.466 349.056 C 383.001 349.807, 384.360 349.395, 386.486 348.141 C 392.026 344.872, 398.467 344.712, 417.230 347.380 C 419.987 347.772, 420.565 349, 417.992 349 L 415.651 349 418 351.500 C 419.292 352.875, 419.820 354, 419.174 354 C 418.528 354, 418 354.450, 418 355 C 418 355.550, 419.350 356, 421 356 L 424 356 421.964 358.036 C 420.843 359.157, 420.171 360.468, 420.470 360.951 C 420.768 361.434, 420.447 362.031, 419.756 362.278 C 416.950 363.279, 424.796 365.496, 433.750 366.231 C 434.438 366.287, 435 366.612, 435 366.952 C 435 367.293, 435.900 367.571, 437 367.571 C 439.511 367.571, 439.515 367.625, 436.449 359.369 C 433.434 351.250, 427.273 341.737, 425.636 342.672 C 425.011 343.029, 424.842 342.944, 425.259 342.485 C 426.169 341.482, 422.186 337, 420.385 337 C 419.688 337, 418.797 336.480, 418.405 335.845 C 417.935 335.086, 418.172 334.941, 419.095 335.420 C 419.868 335.820, 419.712 335.503, 418.750 334.714 C 417.788 333.925, 417 332.718, 417 332.033 C 417 331.335, 416.339 331.040, 415.500 331.362 C 414.675 331.678, 413.980 331.389, 413.955 330.719 C 413.930 330.048, 412.017 327.693, 409.705 325.486 C 394.491 310.960, 387.829 304.802, 389.485 306.795 M 376.500 333.070 C 374.850 333.564, 372.656 333.702, 371.625 333.377 L 369.750 332.786 370.539 334.063 L 371.328 335.340 369.612 334.681 C 368.668 334.319, 368.148 334.430, 368.455 334.928 C 368.763 335.426, 370.586 335.708, 372.507 335.556 C 374.428 335.403, 376 335.576, 376 335.939 C 376 337.643, 373.251 339, 369.800 339 L 366 339 366 341.107 C 366 342.575, 366.458 343.038, 367.510 342.635 C 369.768 341.768, 378.893 343.750, 380.628 345.485 C 382.530 347.387, 383.431 347.391, 385 345.500 C 385.860 344.464, 385.898 344, 385.122 344 C 384.505 344, 384 344.450, 384 345 C 384 345.550, 383.523 346, 382.941 346 C 382.359 346, 382.141 345.581, 382.457 345.069 C 382.774 344.557, 382.575 343.856, 382.016 343.510 C 380.399 342.511, 380.832 341.188, 383 340.500 C 385.335 339.759, 385.687 338, 383.500 338 C 382.675 338, 382 337.580, 382 337.066 C 382 336.553, 380.762 335.941, 379.250 335.708 L 376.500 335.282 378.750 334.524 C 379.988 334.108, 381 333.369, 381 332.883 C 381 331.849, 380.512 331.869, 376.500 333.070 M 253.250 339.739 C 251.730 340.259, 251.569 344, 253.067 344 C 253.680 344, 253.864 344.853, 253.500 346 L 252.865 348 258.183 348.115 C 264.403 348.250, 266.349 348.144, 270.750 347.434 L 274 346.909 274 348.577 L 274 350.245 275.558 348.952 C 277.244 347.553, 280.301 340.967, 279.593 340.260 C 279.355 340.021, 278.400 340.987, 277.471 342.405 C 275.626 345.219, 274 345.002, 274 341.941 L 274 340 267.250 339.814 C 263.538 339.711, 259.150 339.556, 257.500 339.469 C 255.850 339.382, 253.938 339.503, 253.250 339.739 M 375.500 371.992 C 374.400 372.469, 371.787 372.891, 369.693 372.930 C 362.241 373.067, 344.316 378.968, 334.209 384.610 C 331.809 385.950, 327.177 388.131, 323.916 389.456 C 317.991 391.864, 311.673 396, 313.920 396 C 314.575 396, 317.898 394.525, 321.305 392.723 C 324.712 390.920, 329.637 388.633, 332.250 387.640 C 334.863 386.647, 337 385.422, 337 384.917 C 337 384.413, 337.838 384, 338.862 384 C 339.886 384, 343.701 382.650, 347.340 381 C 350.979 379.350, 354.603 378, 355.395 378 C 356.186 378, 357.021 377.438, 357.250 376.750 L 357.666 375.500 377.583 375.300 C 396.520 375.110, 405 375.948, 405 378.007 C 405 378.519, 405.749 378.650, 406.664 378.299 C 407.730 377.890, 408.085 378.053, 407.652 378.754 C 406.878 380.006, 409.601 380.820, 412.353 380.158 L 414.206 379.713 410.353 378.310 C 398.588 374.028, 391.938 372.127, 388.904 372.181 C 387.032 372.215, 383.700 371.990, 381.500 371.683 C 379.300 371.376, 376.600 371.515, 375.500 371.992 M 40 478.026 C 20.022 481.471, 25.798 497.345, 49.820 505.017 C 56.702 507.215, 67.351 511.135, 86.500 518.518 C 92.550 520.851, 101.100 523.781, 105.500 525.029 C 109.900 526.277, 115.333 528.081, 117.572 529.037 C 122.897 531.311, 192.888 554.776, 209 559.689 L 221.500 563.500 237.500 563.387 L 253.500 563.274 276.500 558.138 C 289.150 555.313, 306.250 551.480, 314.500 549.620 C 322.750 547.760, 334.675 545.268, 341 544.082 C 347.325 542.897, 356.775 540.843, 362 539.518 C 367.225 538.193, 376.675 536.165, 383 535.012 C 396.892 532.478, 411.238 529.432, 416 528.003 C 417.925 527.425, 426.250 525.837, 434.500 524.472 C 442.750 523.108, 451.525 521.334, 454 520.531 C 456.475 519.728, 466.375 517.473, 476 515.519 C 507.490 509.128, 517.388 504.494, 518.525 495.611 L 519 491.904 516.545 489.629 C 515.195 488.378, 510.896 486.069, 506.993 484.497 C 503.089 482.926, 499.643 481.231, 499.334 480.732 C 499.025 480.232, 498.249 480.875, 497.609 482.162 C 495.433 486.535, 482.619 489.911, 428 500.499 C 420.575 501.938, 407.075 504.858, 398 506.989 C 388.925 509.119, 375.425 512.030, 368 513.459 C 360.575 514.887, 346.400 517.880, 336.500 520.110 C 326.600 522.340, 305.450 526.801, 289.500 530.023 C 273.550 533.245, 257.125 536.669, 253 537.632 C 248.080 538.781, 241.199 539.403, 233 539.440 L 220.500 539.497 207.500 534.817 C 184.354 526.485, 156.800 517.224, 144 513.475 C 105.585 502.224, 44.970 480.864, 43.821 478.173 C 43.644 477.761, 41.925 477.694, 40 478.026" stroke="none" fill="#3f99cb" fill-rule="evenodd"/><path d="M 307 169 C 307 169.550, 307.788 170.067, 308.750 170.148 C 309.712 170.229, 311.175 170.388, 312 170.500 C 312.825 170.612, 314.299 170.771, 315.275 170.852 C 316.251 170.933, 317.477 172.125, 318 173.500 L 318.950 176 321.475 176 C 324.442 176, 324.603 175.456, 322.311 173.179 L 320.621 171.500 324.409 171.184 C 326.823 170.982, 328.825 171.436, 329.929 172.436 C 330.882 173.299, 331.963 173.703, 332.331 173.336 C 332.699 172.968, 333.029 173.754, 333.063 175.083 L 333.127 177.500 334.031 175.250 L 334.936 173 337.968 173 C 339.719 173, 341.006 172.472, 341.015 171.750 L 341.031 170.500 341.917 171.899 L 342.803 173.299 347.358 172.675 C 349.929 172.322, 352.172 172.470, 352.508 173.014 C 352.841 173.552, 352.420 173.715, 351.552 173.382 C 350.698 173.054, 350 173.175, 350 173.651 C 350 174.126, 347.863 174.603, 345.250 174.710 C 336.638 175.063, 336 175.198, 336 176.673 L 336 178.135 338.125 177.460 C 340.947 176.565, 342.323 178.820, 340.230 180.912 L 338.641 182.500 341.571 183.132 C 343.182 183.479, 346.150 183.817, 348.167 183.882 C 350.183 183.947, 351.983 184.399, 352.167 184.887 C 353.051 187.240, 383.637 189.266, 408.225 188.599 L 430.950 187.983 434.378 186.242 L 437.805 184.500 438.892 179.137 C 440.526 171.073, 438.102 170.449, 416.780 173.444 C 411.126 174.238, 404.700 175.078, 402.500 175.310 C 395.530 176.044, 370.829 174.010, 362 171.975 C 345.960 168.276, 307 166.169, 307 169 M 367.203 320.256 C 366.630 320.946, 365.869 322.674, 365.512 324.096 L 364.863 326.680 367.397 328.340 C 374.722 333.140, 382.778 325.460, 375.653 320.469 C 373.083 318.670, 368.613 318.557, 367.203 320.256 M 367.251 347.970 L 366.020 349.940 367.998 350.999 C 369.086 351.581, 370.255 353.170, 370.597 354.529 L 371.217 357 373.585 357 C 376.504 357, 379.337 353.058, 378.335 350.391 C 376.636 345.871, 369.531 344.319, 367.251 347.970" stroke="none" fill="#fce176" fill-rule="evenodd"/><path d="M 289 32.062 C 283.225 33.082, 272.520 34.623, 265.211 35.486 C 257.902 36.350, 246.877 37.951, 240.711 39.044 C 234.545 40.138, 221.625 42.173, 212 43.567 C 202.375 44.962, 185.950 47.429, 175.500 49.051 C 145.492 53.708, 116.327 56.957, 104.309 56.983 C 99.214 56.993, 95.848 57.436, 95.405 58.155 C 94.962 58.870, 95.130 59.038, 95.845 58.595 C 96.480 58.203, 97 58.288, 97 58.783 C 97 59.927, 107.034 62.924, 144.500 72.970 C 161 77.395, 176.750 81.663, 179.500 82.455 C 189.087 85.215, 204.928 87.932, 215.177 88.574 L 225.500 89.220 239.500 87.056 C 247.200 85.867, 263.400 83.566, 275.500 81.943 C 287.600 80.320, 301.100 78.358, 305.500 77.582 C 309.900 76.806, 319.800 75.207, 327.500 74.028 C 335.200 72.850, 344.875 71.206, 349 70.376 C 353.125 69.546, 366.850 67.333, 379.500 65.460 C 392.150 63.587, 408.238 60.821, 415.251 59.314 L 428.002 56.574 421.751 55.329 C 415.631 54.110, 402.575 51.101, 374.500 44.439 C 308.114 28.686, 308.117 28.686, 289 32.062 M 482.797 91.678 L 480.094 92.124 484.547 96.390 C 486.996 98.737, 489 101.436, 489 102.388 C 489 103.444, 489.451 103.839, 490.158 103.403 C 490.951 102.912, 491.137 103.366, 490.751 104.845 C 490.440 106.032, 490.595 106.751, 491.093 106.442 C 492.239 105.734, 492.232 106.005, 490.889 113.714 L 489.779 120.092 486.538 123.528 C 484.756 125.418, 483.487 127.153, 483.718 127.384 C 484.158 127.825, 474.879 130, 472.558 130 C 470.354 130, 469.929 132.801, 471.065 139.843 C 471.656 143.504, 472.138 153.925, 472.137 163 L 472.136 179.500 470.125 187.187 C 463.045 214.252, 454.174 226.699, 415.166 264.298 C 402.393 276.610, 402.386 276.691, 413.552 285.500 C 417.554 288.657, 421.773 292.501, 436.481 306.390 C 442.744 312.304, 445.723 314.512, 446.325 313.685 C 446.898 312.898, 447.011 313.059, 446.659 314.163 C 446.330 315.196, 447.431 317.167, 449.565 319.364 C 451.454 321.309, 453 323.343, 453 323.882 C 453 325.201, 458.563 329.103, 459.339 328.328 C 459.676 327.991, 460.566 328.225, 461.318 328.849 C 462.069 329.472, 463.042 329.649, 463.479 329.241 C 463.916 328.834, 464.043 329.175, 463.762 330 C 463.480 330.825, 462.837 331.419, 462.333 331.319 C 461.828 331.220, 461.343 332.101, 461.254 333.277 L 461.093 335.416 463.376 332.553 L 465.658 329.691 476.024 330.404 C 481.725 330.797, 487.089 331.528, 487.945 332.029 L 489.500 332.939 488 333.097 C 487.175 333.184, 485.438 333.364, 484.140 333.496 C 481.173 333.800, 480.162 335.396, 480.806 338.763 L 481.309 341.397 482.260 338.948 L 483.210 336.500 483.907 338.361 C 485.179 341.757, 495 343.851, 495 340.726 C 495 340.144, 495.199 339.866, 495.442 340.109 C 495.686 340.353, 496.377 346.390, 496.979 353.526 C 498.222 368.261, 498.594 370, 500.499 370 L 501.863 370 502.390 360.250 C 503.947 331.481, 504.927 245.859, 504.253 197.500 C 503.839 167.800, 503.593 139.450, 503.707 134.500 C 504.307 108.448, 504.057 101, 502.583 101 C 502.079 101, 501.964 100.702, 502.328 100.339 C 503.368 99.299, 495.381 92, 493.204 92 C 492.129 92, 489.956 91.827, 488.375 91.616 C 486.794 91.405, 484.284 91.432, 482.797 91.678 M 46.400 97.400 L 43 100.800 42.969 104.150 C 42.559 148.505, 43.132 318.394, 43.695 319.275 C 44.126 319.949, 44.544 325.900, 44.624 332.500 C 44.743 342.226, 46.591 355.336, 46.914 348.750 C 46.961 347.788, 47.450 347, 48 347 C 48.550 347, 49 345.875, 49 344.500 C 49 341.770, 49.936 341.336, 51.800 343.200 L 53 344.400 53 340.759 C 53 335.887, 54.794 334.979, 55.188 339.652 C 55.360 341.683, 56.074 343.459, 56.775 343.598 C 57.476 343.736, 57.589 343.621, 57.025 343.342 C 55.514 342.592, 55.776 340.977, 57.313 341.567 C 58.035 341.844, 59.465 341.144, 60.489 340.012 L 62.353 337.953 63.161 339.226 C 63.715 340.099, 63.974 339.810, 63.985 338.309 C 63.993 337.104, 63.550 335.840, 63 335.500 C 60.868 334.182, 62 332.136, 64.702 332.425 C 67.891 332.764, 68.716 334.419, 66.845 336.721 L 65.500 338.374 67.133 337.764 L 68.765 337.153 70.601 341.223 C 71.610 343.461, 73.088 345.945, 73.884 346.742 L 75.333 348.190 74.142 351.484 C 72.256 356.699, 73.017 360.876, 76.277 363.197 C 80.820 366.432, 80.389 369.451, 81.376 327.500 C 81.595 318.150, 81.826 306.992, 81.888 302.705 L 82 294.909 84.455 292.455 L 86.909 290 90.711 290 C 92.802 290, 96.085 290.464, 98.007 291.031 C 102.829 292.455, 129.875 298.023, 139 299.470 C 148.044 300.905, 152.454 303.044, 154.493 306.986 L 156.019 309.937 155.945 323.719 C 155.904 331.298, 155.826 338.850, 155.771 340.500 C 155.716 342.150, 155.745 344.568, 155.835 345.872 L 156 348.245 157.664 346.872 L 159.327 345.500 158.164 347.684 C 156.858 350.136, 156.504 376, 157.777 376 C 158.204 376, 159.779 374.110, 161.277 371.800 L 164 367.600 164.115 358.050 C 164.179 352.797, 164.291 347.825, 164.365 347 L 164.500 345.500 173.947 345.789 C 179.143 345.948, 185.108 346.464, 187.203 346.934 C 192.399 348.102, 191.973 357.040, 192.019 245.864 C 192.065 132.895, 192.496 140.299, 185.478 133.440 L 180.300 128.380 172.900 126.209 C 168.830 125.015, 156.725 121.815, 146 119.098 C 135.275 116.381, 117.950 111.817, 107.500 108.956 C 97.050 106.095, 83.100 102.276, 76.500 100.469 C 69.900 98.663, 62.531 96.468, 60.124 95.592 C 53.314 93.114, 50.287 93.513, 46.400 97.400 M 433.917 124.398 C 433.688 124.617, 421.800 126.421, 407.500 128.407 C 393.200 130.393, 378.800 132.445, 375.500 132.968 C 360.295 135.378, 355.193 136.101, 336 138.563 C 324.725 140.009, 313.250 141.486, 310.500 141.846 L 305.500 142.500 305.218 154.250 L 304.937 166 311.218 166.118 C 314.673 166.184, 317.837 166.184, 318.250 166.118 C 318.663 166.053, 319 166.450, 319 167 C 319 167.622, 324.650 168, 333.951 168 C 347.226 168, 356.416 168.924, 361 170.720 C 361.825 171.043, 363.625 171.470, 365 171.669 C 366.375 171.867, 370.511 172.473, 374.192 173.015 C 384.614 174.549, 407.424 174.207, 415.500 172.395 C 419.350 171.531, 425.200 170.868, 428.500 170.921 C 431.800 170.974, 435.681 170.765, 437.125 170.456 L 439.751 169.896 440.448 161.907 C 440.831 157.513, 440.824 147.186, 440.433 138.959 L 439.721 124 437.027 124 C 435.545 124, 434.146 124.179, 433.917 124.398 M 252.500 129.569 C 247.834 131.991, 244.161 135.972, 241.416 141.582 L 238.900 146.725 238.397 174.612 C 237.675 214.609, 239.718 351.051, 241.058 352.391 C 241.338 352.672, 248.018 352.970, 255.901 353.054 C 263.785 353.138, 271.629 353.607, 273.332 354.095 L 276.430 354.984 277.448 353.242 C 278.008 352.284, 279.087 349.700, 279.845 347.500 C 280.604 345.300, 282.654 341.475, 284.402 339 C 286.150 336.525, 288.201 333.262, 288.959 331.750 C 289.718 330.238, 290.712 329, 291.169 329 C 291.626 329, 292 328.298, 292 327.441 C 292 326.505, 292.468 326.171, 293.170 326.605 C 293.971 327.100, 294.125 326.769, 293.659 325.553 L 292.977 323.777 294.541 324.377 C 295.553 324.766, 295.855 324.575, 295.399 323.837 C 295.012 323.210, 295.342 322.202, 296.134 321.598 C 296.926 320.994, 298.604 319.032, 299.863 317.238 C 301.194 315.342, 302.644 314.258, 303.326 314.649 C 303.972 315.018, 304.199 314.985, 303.832 314.576 C 302.964 313.608, 306.094 309.940, 307.203 310.626 C 307.669 310.913, 307.926 310.778, 307.775 310.324 C 307.494 309.483, 311.534 305, 312.571 305 C 313.502 305, 315.561 302.634, 316.278 300.741 C 316.645 299.773, 317.295 299.098, 317.724 299.241 C 318.682 299.559, 323.830 295.069, 334.981 284.188 L 343.500 275.876 340.500 273.322 C 331.450 265.616, 323.085 257.785, 307.580 242.500 L 290.335 225.500 285.200 215 C 282.376 209.225, 278.838 200.450, 277.337 195.500 L 274.610 186.500 274.592 169.353 L 274.574 152.206 270.628 151.677 C 267.865 151.306, 265.604 150.070, 263.090 147.557 L 259.500 143.967 259.500 135.983 L 259.500 128 257.500 128.006 C 256.400 128.010, 254.150 128.713, 252.500 129.569 M 85.585 160.324 L 83.261 162.648 82.626 175.074 C 81.682 193.537, 82.018 235.935, 83.142 240.333 L 84.122 244.166 88.434 246.074 C 93.405 248.273, 114.909 253.228, 129.500 255.537 C 135 256.407, 141.454 257.554, 143.842 258.084 L 148.184 259.050 151.420 257.049 C 156.468 253.929, 156.536 253.265, 156 212.160 L 155.500 173.821 153.179 171.942 C 151.902 170.909, 149.202 169.808, 147.179 169.496 C 140.947 168.533, 117.834 163.850, 111.500 162.267 C 91.991 157.390, 88.761 157.148, 85.585 160.324 M 67.402 256.331 L 64.693 258.661 64.215 264.418 C 63.381 274.472, 66.648 280.064, 73.297 279.968 C 78.431 279.894, 81 275.188, 81 265.858 L 81 259.846 78.077 256.923 C 74.528 253.374, 71.062 253.182, 67.402 256.331 M 111.357 262.954 C 103.440 266.288, 104.577 279.692, 113.210 284.808 L 115.920 286.414 118.679 285.444 C 124.352 283.449, 127.510 275.102, 125.045 268.617 C 123.311 264.058, 115.958 261.016, 111.357 262.954 M 158.020 271.284 C 146.606 277.060, 153.378 296.494, 166.594 295.888 L 171.500 295.663 171.959 292.082 C 174.265 274.101, 168.741 265.860, 158.020 271.284 M 365.916 296.770 C 362.387 300.432, 360.512 302.587, 361.750 301.559 C 364.831 298.999, 364.591 300.883, 361.397 304.328 C 359.965 305.872, 358.225 306.916, 357.529 306.649 C 356.833 306.382, 354.067 308.489, 351.382 311.332 L 346.500 316.500 351.988 311.500 C 355.590 308.218, 356.449 307.685, 354.488 309.949 C 350.981 313.998, 346.799 317.584, 345.918 317.299 C 345.576 317.189, 343.767 318.755, 341.898 320.778 C 340.029 322.802, 339.512 323.610, 340.750 322.574 C 341.988 321.538, 343 321.140, 343 321.690 C 343 323.226, 339.416 326.120, 337.921 325.792 C 337.189 325.631, 336.570 326.132, 336.545 326.905 C 336.520 327.677, 335.635 328.436, 334.578 328.591 C 333.521 328.747, 330.821 330.807, 328.578 333.170 L 324.500 337.467 328.542 333.733 C 332.794 329.807, 335.595 328.580, 332.500 332 C 331.505 333.100, 331.172 334, 331.762 334 C 332.351 334, 332.983 333.569, 333.167 333.043 C 333.483 332.134, 335.860 332.364, 353 334.957 L 358.500 335.789 360 334.525 C 361.629 333.152, 364.367 333.597, 363.447 335.085 C 362.750 336.213, 364.055 336.252, 365.784 335.155 C 367.055 334.348, 366.467 331, 365.054 331 C 364.028 331, 362.384 326.900, 362.447 324.500 C 362.476 323.400, 363.046 322.607, 363.714 322.738 C 364.382 322.869, 364.694 322.367, 364.409 321.623 C 364.123 320.879, 365.238 319.136, 366.886 317.749 L 369.882 315.228 373.191 315.949 C 375.011 316.345, 376.402 317.150, 376.282 317.738 C 376.162 318.327, 376.811 319.414, 377.724 320.154 L 379.384 321.500 378.633 320.250 C 377.573 318.486, 378.615 318.699, 381.080 320.750 C 384.093 323.258, 385.232 326.698, 383.884 329.217 L 382.767 331.303 384.285 330.721 C 385.265 330.345, 386.069 330.912, 386.553 332.319 L 387.303 334.500 387.715 331.250 C 387.964 329.283, 388.694 328, 389.563 328 C 390.354 328, 391.007 327.438, 391.015 326.750 L 391.031 325.500 391.824 326.750 C 392.323 327.535, 394.705 327.951, 398.236 327.870 L 403.854 327.740 406.545 329.857 C 408.024 331.020, 409.677 331.700, 410.217 331.366 C 410.766 331.026, 410.713 331.667, 410.097 332.819 C 409.350 334.215, 409.326 335.083, 410.022 335.514 C 410.587 335.863, 410.926 335.553, 410.775 334.824 C 410.620 334.080, 411.282 333.563, 412.285 333.645 L 414.070 333.789 412.785 332.145 C 412.078 331.240, 409.322 328.414, 406.660 325.865 L 401.820 321.229 403.065 320.460 C 403.920 319.931, 404.056 320.100, 403.500 321 C 402.943 321.901, 403.080 322.069, 403.939 321.538 L 405.187 320.766 400.937 316.435 C 398.599 314.053, 396.419 312.190, 396.093 312.295 C 394.995 312.646, 391.526 309.533, 387.673 304.738 C 385.569 302.119, 383.497 300.193, 383.069 300.457 C 382.641 300.722, 381.213 299.755, 379.895 298.308 C 378.578 296.861, 378.175 296.061, 379 296.531 L 380.500 297.384 379.137 295.703 C 378.387 294.778, 377.305 294.312, 376.732 294.666 C 376.160 295.019, 375.946 294.897, 376.257 294.393 C 376.911 293.335, 375.003 290.592, 373.413 290.305 C 372.818 290.198, 369.445 293.107, 365.916 296.770 M 375 337.500 C 374.285 338.361, 372.104 339, 369.878 339 L 366 339 366 341.107 C 366 342.575, 366.458 343.038, 367.510 342.635 C 368.778 342.148, 373.143 342.688, 380.070 344.190 C 380.937 344.378, 381.391 343.841, 381.224 342.826 C 381.065 341.865, 381.811 340.877, 382.974 340.508 C 385.329 339.761, 385.699 338, 383.500 338 C 382.675 338, 382 337.550, 382 337 C 382 335.430, 376.385 335.831, 375 337.500 M 253.250 339.739 C 251.730 340.259, 251.569 344, 253.067 344 C 253.680 344, 253.864 344.853, 253.500 346 L 252.865 348 258.183 348.115 C 264.403 348.250, 266.349 348.144, 270.750 347.434 L 274 346.909 274 348.577 L 274 350.245 275.558 348.952 C 277.244 347.553, 280.301 340.967, 279.593 340.260 C 279.355 340.021, 278.400 340.987, 277.471 342.405 C 275.626 345.219, 274 345.002, 274 341.941 L 274 340 267.250 339.814 C 263.538 339.711, 259.150 339.556, 257.500 339.469 C 255.850 339.382, 253.938 339.503, 253.250 339.739" stroke="none" fill="#31d4db" fill-rule="evenodd"/><path d="M 306.015 173.590 C 305.963 194.525, 311.817 204.263, 343.834 236.500 C 356.398 249.150, 368.135 261.300, 369.916 263.500 L 373.155 267.500 374.827 265.005 C 377.361 261.224, 385.846 251.954, 400.461 237 C 424.564 212.337, 430.640 204.628, 435.412 192.654 C 438.467 184.988, 438.228 183.843, 434.086 186.290 L 431.234 187.975 408.367 188.595 C 383.642 189.265, 353.054 187.247, 352.167 184.887 C 351.983 184.399, 350.183 183.947, 348.167 183.882 C 346.150 183.817, 343.182 183.479, 341.571 183.132 L 338.641 182.500 340.230 180.912 C 342.323 178.820, 340.947 176.565, 338.125 177.460 L 336 178.135 336 176.673 C 336 175.198, 336.638 175.063, 345.250 174.710 C 347.863 174.603, 350 174.126, 350 173.651 C 350 173.175, 350.698 173.054, 351.552 173.382 C 352.420 173.715, 352.841 173.552, 352.508 173.014 C 352.172 172.470, 349.929 172.322, 347.358 172.675 L 342.803 173.299 341.917 171.899 L 341.031 170.500 341.015 171.750 C 341.006 172.472, 339.719 173, 337.968 173 L 334.936 173 334.031 175.250 L 333.127 177.500 333.063 175.083 C 333.029 173.754, 332.699 172.968, 332.331 173.336 C 331.963 173.703, 330.882 173.299, 329.929 172.436 C 328.825 171.436, 326.823 170.982, 324.409 171.184 L 320.621 171.500 322.311 173.179 C 324.603 175.456, 324.442 176, 321.475 176 L 318.950 176 318 173.500 C 317.477 172.125, 316.476 170.951, 315.775 170.890 C 315.074 170.830, 312.982 170.655, 311.128 170.501 C 309.273 170.347, 307.367 169.609, 306.893 168.861 C 306.355 168.011, 306.025 169.788, 306.015 173.590 M 358.777 376.869 C 355.080 377.902, 345.855 381.636, 338.277 385.167 C 330.700 388.699, 320.091 393.593, 314.703 396.044 L 304.906 400.500 305.203 413.668 C 305.580 430.374, 304.486 429.591, 324 427.126 C 328.675 426.536, 337.900 425.371, 344.500 424.538 C 351.100 423.705, 360.550 422.533, 365.500 421.933 C 370.450 421.334, 382.375 419.539, 392 417.944 C 407.925 415.306, 437.243 411, 439.278 411 C 439.942 411, 439.368 392.948, 438.685 392.384 C 438.286 392.054, 418.139 383.694, 412 381.310 C 398.719 376.154, 396.849 375.797, 381 375.390 L 365.500 374.992 358.777 376.869" stroke="none" fill="#fd7430" fill-rule="evenodd"/><path d="M 289 1.523 C 284.325 2.262, 275.775 3.368, 270 3.980 C 264.225 4.592, 255.225 5.934, 250 6.962 C 244.775 7.990, 238.025 9.146, 235 9.531 C 231.975 9.915, 228.811 10.592, 227.969 11.033 C 227.127 11.475, 221.052 12.563, 214.469 13.451 C 179.746 18.135, 166.096 20.337, 158.500 22.480 C 155.750 23.255, 147.650 24.836, 140.500 25.992 C 129.204 27.819, 94.469 34.023, 79.500 36.887 C 27.544 46.830, 13.365 54.938, 3.150 80.545 L -0.059 88.590 0.045 250.358 L 0.150 412.127 2.149 418.314 C 7.661 435.375, 21.426 451.069, 36.058 456.976 C 44.304 460.305, 46.364 461.581, 47.980 464.363 L 49.460 466.911 46.781 472.375 L 44.101 477.839 45.300 478.794 C 45.960 479.320, 47.850 480.432, 49.500 481.266 C 53.816 483.448, 133.633 510.040, 152 515.415 C 160.525 517.911, 173.350 522.040, 180.500 524.591 C 187.650 527.142, 200.025 531.481, 208 534.232 L 222.500 539.235 232.500 539.215 C 238 539.203, 245.650 538.524, 249.500 537.706 C 253.350 536.887, 273.368 532.776, 293.986 528.570 C 314.603 524.364, 334.853 520.065, 338.986 519.018 C 343.118 517.971, 354.825 515.474, 365 513.470 C 375.175 511.467, 389.125 508.489, 396 506.854 C 411.389 503.194, 424.831 500.366, 436 498.436 C 467.808 492.943, 493.916 486.245, 496.706 482.863 L 497.913 481.400 496.532 475.462 L 495.152 469.524 496.326 468.774 C 496.972 468.362, 500.650 466.830, 504.500 465.371 C 527.216 456.762, 540.615 441.222, 547.507 415.491 L 548.849 410.482 548.822 247.991 C 548.806 158.621, 548.474 86.850, 548.082 88.500 L 547.370 91.500 546.582 87.160 C 543.110 68.045, 527.537 52.884, 506.334 47.977 C 501.476 46.852, 493.675 44.782, 489 43.376 C 475.073 39.186, 461.887 35.397, 455.500 33.749 C 452.200 32.898, 445.450 31.045, 440.500 29.632 C 431.263 26.996, 425.429 25.537, 390 16.999 C 378.725 14.282, 368.600 11.618, 367.500 11.079 C 366.400 10.539, 360.775 9.159, 355 8.011 C 349.225 6.864, 339.550 4.747, 333.500 3.307 L 322.500 0.689 310 0.434 C 303.034 0.291, 293.737 0.773, 289 1.523 M 292.500 14.944 C 288.650 15.391, 278.750 16.942, 270.500 18.391 C 254.768 21.155, 236.539 24.052, 204 28.960 C 193.275 30.577, 177.975 33.018, 170 34.384 C 162.025 35.749, 150.325 37.598, 144 38.491 C 137.675 39.384, 123.950 41.639, 113.500 43.503 C 103.050 45.366, 91.900 47.193, 88.722 47.564 C 84.740 48.028, 82.653 48.780, 82.010 49.981 L 81.077 51.724 83.310 53.821 C 87.545 57.800, 100.851 62.981, 118.642 67.579 C 128.457 70.115, 137.226 72.586, 138.128 73.068 C 139.029 73.551, 144.882 75.304, 151.134 76.964 C 157.385 78.624, 164.975 80.648, 168 81.463 C 205.197 91.477, 221.208 92.950, 245.183 88.564 C 252.508 87.224, 268.175 84.736, 280 83.035 C 291.825 81.334, 306.450 79.087, 312.500 78.043 C 318.550 76.998, 327.100 75.638, 331.500 75.021 C 335.900 74.405, 345.125 72.825, 352 71.512 C 358.875 70.199, 372.150 67.947, 381.500 66.509 C 390.850 65.071, 402.716 63.246, 407.868 62.454 C 413.021 61.661, 418.871 60.608, 420.868 60.113 C 422.866 59.618, 430.800 58.226, 438.500 57.022 C 446.200 55.817, 453.400 54.428, 454.500 53.936 C 455.600 53.444, 457.800 52.569, 459.389 51.993 C 460.977 51.416, 462.030 50.697, 461.728 50.395 C 460.510 49.176, 426.019 39.863, 403 34.536 C 370.191 26.944, 343.512 20.513, 332.222 17.476 L 322.943 14.980 311.222 14.556 C 304.775 14.322, 296.350 14.497, 292.500 14.944 M 36.081 62.588 C 24.136 65.800, 18.262 72.645, 13.113 89.355 L 11 96.211 11.020 248.355 C 11.044 428.501, 10.133 416.867, 25.433 432.395 L 31.748 438.804 39.124 442.343 C 47.269 446.250, 62.053 451.285, 105.500 464.945 C 121.450 469.960, 144.175 477.188, 156 481.007 C 194.401 493.409, 194.110 493.386, 205.636 484.891 C 208.461 482.809, 211.120 481.419, 211.545 481.803 C 211.971 482.186, 212.036 481.712, 211.691 480.750 C 211.345 479.788, 211.499 479, 212.031 479 C 212.564 479, 213 478.352, 213 477.559 C 213 474.750, 214.937 474.977, 216.483 477.967 C 217.346 479.635, 217.804 481, 217.502 481 C 211.702 481, 234.084 495.360, 243.509 497.686 L 250.260 499.352 263.380 497.599 C 270.596 496.635, 282.575 494.543, 290 492.950 C 297.425 491.357, 310.225 488.906, 318.443 487.504 C 326.662 486.102, 335.891 484.306, 338.951 483.513 C 352.831 479.916, 399.268 470.737, 432.500 465.021 C 439.100 463.886, 449.450 461.866, 455.500 460.532 C 461.550 459.198, 471.198 457.407, 476.939 456.552 C 511.037 451.471, 525.452 441.418, 533.653 417 L 535.500 411.500 535.500 254 L 535.500 96.500 533.662 90.500 C 529.561 77.117, 521.023 67.023, 510.459 63.071 L 504.925 61 497.014 61 C 487.282 61, 468.059 63.448, 458 65.969 C 453.875 67.003, 444.200 68.824, 436.500 70.015 C 428.800 71.207, 418.428 73.012, 413.450 74.027 C 408.473 75.042, 397.448 76.814, 388.950 77.964 C 380.453 79.115, 368.100 81.138, 361.500 82.461 C 354.900 83.784, 344.100 85.584, 337.500 86.461 C 330.900 87.338, 322.125 88.715, 318 89.520 C 313.875 90.326, 297.675 92.809, 282 95.038 C 237.831 101.320, 238.088 101.236, 224.691 113.742 L 216.882 121.031 215.097 119.766 C 214.115 119.069, 211.329 116.294, 208.906 113.597 C 199.712 103.366, 194.268 100.924, 158.500 90.985 C 149.150 88.386, 129.575 82.763, 115 78.487 C 54.408 60.714, 47.917 59.406, 36.081 62.588 M 491.500 78.551 C 486.429 80.543, 342.832 104.595, 306.630 109.515 C 271.238 114.325, 270.225 114.613, 267.114 120.750 C 265.929 123.088, 264.627 125, 264.220 125 C 258.665 125, 258.463 140.798, 263.939 146.932 L 266.886 150.233 271.214 150.721 L 275.542 151.208 275.573 168.854 L 275.604 186.500 278.923 196.500 C 287.544 222.473, 293.436 229.815, 335.776 267.346 C 346.189 276.576, 347.171 274.298, 322.185 298.864 C 293.042 327.517, 285.941 337.320, 278.938 358.563 L 275.662 368.500 275.239 387 L 274.816 405.500 276.408 412.312 C 277.284 416.059, 278 419.979, 278 421.024 L 278 422.923 274.053 423.986 C 266.320 426.068, 261 433.871, 261 443.130 L 261 448.324 263.514 452.614 C 264.934 455.037, 267.855 457.993, 270.229 459.408 L 274.430 461.914 268.465 464.707 L 262.500 467.500 255.500 467.500 L 248.500 467.500 245.122 465.091 C 243.162 463.693, 240.779 460.544, 239.446 457.591 L 237.149 452.500 236.766 323.500 C 236.555 252.550, 236.641 183.475, 236.956 170 L 237.528 145.500 241.700 139 C 243.995 135.425, 248.174 130.296, 250.988 127.603 L 256.104 122.706 255.802 120.103 L 255.500 117.500 252.129 117.701 C 244.196 118.174, 233.714 127.654, 227.168 140.276 L 224.500 145.420 224.701 301.040 L 224.901 456.661 227.070 462.458 C 228.441 466.123, 230.941 470.006, 233.869 473.019 L 238.500 477.783 244.098 479.526 L 249.696 481.270 265.098 479.072 C 273.569 477.864, 285.900 475.588, 292.500 474.016 C 299.100 472.443, 309 470.412, 314.500 469.503 C 320 468.593, 329.675 466.556, 336 464.975 C 342.325 463.394, 351.550 461.381, 356.500 460.501 C 361.450 459.621, 370.675 457.809, 377 456.475 C 390.630 453.600, 433.722 445.489, 443.049 444.042 C 446.651 443.483, 454.976 441.942, 461.549 440.617 C 468.122 439.292, 475.975 437.897, 479 437.517 C 501.629 434.673, 510.117 429.664, 516.772 415.226 L 519.411 409.500 519.447 254.500 L 519.483 99.500 516.890 94 C 511.842 83.292, 499.126 75.555, 491.500 78.551 M 42.047 80.305 C 37.132 81.872, 31.528 87.896, 29.608 93.675 L 27.975 98.591 28.238 253.046 L 28.500 407.500 30.500 411.513 C 37.495 425.547, 34.598 424.255, 119.500 451.186 C 131.600 455.024, 151.299 461.333, 163.275 465.205 L 185.050 472.246 189.691 470.946 C 195.301 469.376, 200.145 465.309, 203.788 459.113 L 206.500 454.500 206.774 298.699 L 207.048 142.898 205.163 138.699 C 202.008 131.672, 194.334 122.242, 188.769 118.553 L 183.500 115.061 168 111.100 C 149.998 106.500, 110.648 95.715, 91.070 90.014 C 52.977 78.924, 48.907 78.118, 42.047 80.305 M 0.486 227.500 C 0.486 305.050, 0.605 336.923, 0.750 298.328 C 0.895 259.734, 0.895 196.284, 0.750 157.328 C 0.605 118.373, 0.486 149.950, 0.486 227.500 M 478.796 93.074 C 489.243 98.377, 493.200 110.863, 487.512 120.570 C 484.790 125.215, 482.393 126.744, 474 129.192 L 469.500 130.504 470 137.502 C 470.275 141.351, 470.450 153.050, 470.389 163.500 L 470.278 182.500 467.600 191.400 C 460.756 214.145, 453.443 224.782, 425.941 252 C 414.549 263.275, 404.736 273.464, 404.136 274.643 L 403.044 276.786 405.238 279.643 C 406.444 281.214, 407.724 282.725, 408.082 283 C 410.516 284.870, 433.033 305.998, 440.038 312.985 C 454.284 327.193, 463.588 343.525, 468.530 363 L 471.194 373.500 470.802 385.739 L 470.410 397.977 475.547 399.471 C 482.336 401.444, 485.479 404.069, 487.552 409.497 L 489.261 413.973 488.578 419.122 L 487.895 424.271 490.957 423.659 C 495.473 422.755, 499.478 419.376, 502.405 413.998 L 504.999 409.232 505.249 256.366 L 505.500 103.500 503.839 100.500 C 502.926 98.850, 500.760 96.150, 499.026 94.500 L 495.874 91.500 485.187 91.196 L 474.500 90.893 478.796 93.074 M 51.209 93.039 C 47.127 93.939, 44.134 96.530, 42.372 100.694 L 41.020 103.888 41.003 245.694 C 40.994 323.687, 41.368 391.325, 41.834 396 C 43.389 411.596, 47.411 415.185, 71 422.029 C 75.125 423.225, 85.176 426.620, 93.335 429.573 C 101.495 432.526, 109.820 435.238, 111.835 435.601 C 113.851 435.964, 115.950 436.590, 116.500 436.993 C 117.050 437.395, 118.850 438.036, 120.500 438.418 C 123.566 439.126, 140.251 444.309, 168.177 453.228 L 183.854 458.234 187.677 456.367 L 191.500 454.500 192.628 451 C 194.884 444.001, 195.395 386.417, 194.561 233.277 C 193.947 120.368, 198.200 130.858, 148 118.454 C 130.380 114.100, 129 113.692, 129 112.832 C 129 112.374, 128.252 112, 127.338 112 C 126.424 112, 123.386 111.350, 120.588 110.556 C 117.790 109.762, 111.904 108.392, 107.510 107.510 C 103.115 106.628, 98.209 105.253, 96.606 104.454 C 95.004 103.654, 92.637 103, 91.346 103 C 90.056 103, 89 102.615, 89 102.145 C 89 101.674, 85.287 100.512, 80.750 99.562 C 76.213 98.611, 69.347 96.741, 65.492 95.406 C 56.754 92.379, 55.300 92.138, 51.209 93.039 M 452 101.520 C 447.325 102.217, 440.566 103.480, 436.981 104.326 C 433.395 105.172, 422.595 107.035, 412.981 108.466 C 403.366 109.897, 389.326 112.200, 381.780 113.584 C 374.234 114.967, 361.409 116.934, 353.280 117.953 C 345.151 118.973, 331.750 120.751, 323.500 121.905 C 315.250 123.059, 301.760 124.901, 293.523 125.998 L 278.546 127.993 275.833 130.746 C 274.341 132.261, 272.825 134.715, 272.464 136.200 L 271.808 138.899 274.359 141.450 L 276.909 144 281.705 144.178 C 284.342 144.276, 287.175 144.365, 288 144.376 L 289.500 144.394 289.500 164.947 L 289.500 185.500 292.389 194 C 299.687 215.467, 304.535 221.407, 348.326 262.521 L 359 272.543 359 276.506 L 359 280.469 336.238 302.985 C 302.303 336.552, 299.457 340.114, 293.560 356.405 C 288.528 370.304, 287.804 377.592, 288.605 406.250 L 289.296 431 286.213 431 C 276.545 431, 270.351 441.223, 276.512 447.012 L 279.025 449.372 293.262 448.160 C 309.629 446.767, 326.895 444.708, 345.500 441.931 C 352.650 440.864, 365.025 439.336, 373 438.535 C 380.975 437.734, 393.115 435.927, 399.977 434.521 C 406.840 433.114, 421.200 430.838, 431.889 429.462 C 442.578 428.087, 456.005 426.122, 461.725 425.096 L 472.126 423.230 474.563 420.941 C 477.448 418.231, 477.736 414.106, 475.250 411.119 L 473.500 409.016 466.168 408 C 462.135 407.441, 458.454 407.219, 457.988 407.508 C 457.522 407.796, 457.221 399.587, 457.320 389.266 L 457.500 370.500 455.729 364 C 451.421 348.189, 444.094 336.246, 430.881 323.500 C 378.698 273.160, 380.161 280.979, 416 243.954 C 443.932 215.098, 448.794 208.095, 454.455 188.559 L 457 179.776 457 149.495 L 457 119.214 458.582 118.607 C 459.452 118.273, 462.181 118, 464.648 118 C 475.387 118, 479.553 110.353, 472.600 103.400 L 469.200 100 464.850 100.126 C 462.457 100.196, 456.675 100.823, 452 101.520 M 86.441 160.417 L 84.500 161.835 83.889 173.167 C 83.552 179.400, 83.514 197.307, 83.803 212.960 L 84.329 241.419 86.549 243.640 C 87.771 244.862, 90.724 246.387, 93.113 247.030 C 102.094 249.449, 120.779 253.209, 137.500 255.962 C 141.350 256.596, 145.434 257.343, 146.575 257.622 C 147.969 257.962, 149.693 257.155, 151.825 255.163 L 155 252.198 155 213.112 L 155 174.027 151.648 172.626 C 149.805 171.856, 146.317 170.927, 143.898 170.561 C 139.364 169.876, 114.623 164.385, 100.500 160.930 C 91.014 158.609, 89.017 158.537, 86.441 160.417 M 94 183.465 L 94 197.930 95.750 198.841 C 96.713 199.342, 101.018 200.573, 105.318 201.575 L 113.136 203.398 113.818 202.294 C 114.193 201.688, 114.497 194.984, 114.493 187.398 L 114.487 173.605 104.993 171.348 C 99.772 170.107, 95.162 169.070, 94.750 169.045 C 94.338 169.020, 94 175.509, 94 183.465 M 122.520 180.148 C 122.172 182.542, 122.025 189.197, 122.193 194.938 L 122.500 205.376 130.500 207.157 C 134.900 208.136, 139.963 208.952, 141.750 208.969 L 145 209 145.188 197.500 C 145.291 191.175, 145.403 184.810, 145.438 183.356 L 145.500 180.713 136.500 178.780 C 131.550 177.717, 126.522 176.611, 125.327 176.322 L 123.153 175.796 122.520 180.148 M 94 223.141 L 94 236.531 104 238.613 L 114 240.695 114 231.987 C 114 227.198, 114.278 221.248, 114.619 218.766 L 115.237 214.254 107.869 212.633 C 103.816 211.742, 99.037 210.728, 97.250 210.381 L 94 209.750 94 223.141 M 122.527 217.750 C 121.797 219.612, 121.756 241.796, 122.481 242.969 C 122.865 243.590, 137.422 246.069, 142.500 246.378 L 144.500 246.500 144.500 233.649 L 144.500 220.797 135.012 218.399 C 123.675 215.533, 123.403 215.519, 122.527 217.750 M 67.345 257.564 L 64.782 260.128 65.180 267.184 L 65.579 274.241 68.345 276.621 C 71.720 279.523, 75.088 279.665, 77.495 277.006 L 79.300 275.011 79.776 267.587 L 80.253 260.162 77.672 257.581 C 74.378 254.287, 70.628 254.281, 67.345 257.564 M 109.455 265.455 C 108.105 266.805, 106.950 268.717, 106.889 269.705 C 106.470 276.513, 108.526 280.891, 113.368 283.499 L 116.891 285.396 119.600 283.948 C 122.509 282.393, 125 277.610, 125 273.579 C 125 265.029, 115.070 259.839, 109.455 265.455 M 159.015 271.894 C 157.648 272.273, 155.897 273.710, 155.124 275.088 L 153.719 277.592 154.425 283.244 C 155.273 290.037, 157.791 293.572, 162.756 294.943 L 166.420 295.955 168.571 294.545 C 172.094 292.237, 172.897 275.730, 169.613 273.139 C 167.950 271.827, 161.843 271.109, 159.015 271.894 M 85.116 293.580 L 83.086 296.160 83.090 333.559 L 83.093 370.957 85.511 373.831 C 88.256 377.093, 88.626 377.218, 122.500 386.335 L 146.500 392.795 150.282 390.696 C 155.165 387.985, 155.255 387.484, 154.846 365.461 L 154.500 346.825 151.750 344.460 C 148.496 341.663, 148.428 341.383, 150.848 340.750 C 153.368 340.091, 154 336.148, 154 321.098 L 154 308.445 152.449 306.230 C 150.071 302.836, 147.657 301.947, 136.657 300.417 C 131.070 299.640, 122 297.892, 116.500 296.533 C 89.551 289.871, 88.138 289.738, 85.116 293.580 M 93.222 314.750 L 93.500 328.500 102.308 331.358 C 107.153 332.931, 111.428 333.903, 111.808 333.519 C 112.642 332.679, 112.746 306.413, 111.919 305.586 C 111.227 304.893, 96.277 301, 94.312 301 L 92.944 301 93.222 314.750 M 123.289 320.905 L 123.118 334.955 126.809 335.926 C 147.253 341.305, 145.274 342.473, 144.222 325.648 C 143.224 309.702, 144.264 311.522, 134.977 309.468 C 130.865 308.559, 126.591 307.599, 125.480 307.335 L 123.460 306.855 123.289 320.905 M 93 353.882 L 93 367.764 101.513 370.418 C 106.195 371.878, 110.695 373.329, 111.513 373.643 L 113 374.214 113 359.126 L 113 344.038 110.250 343.415 C 108.737 343.072, 104.960 342.163, 101.856 341.396 C 98.751 340.628, 95.489 340, 94.606 340 L 93 340 93 353.882 M 122.667 346.667 C 122.300 347.033, 122 353.766, 122 361.628 L 122 375.923 126.250 377.025 C 128.588 377.632, 132.075 378.547, 134 379.058 C 135.925 379.570, 138.963 379.991, 140.750 379.994 L 144 380 144 367.082 C 144 353.053, 143.635 351, 141.143 351 C 140.239 351, 135.900 349.882, 131.500 348.515 C 127.100 347.148, 123.463 346.023, 123.417 346.015 C 123.371 346.007, 123.033 346.300, 122.667 346.667" stroke="none" fill="#441d54" fill-rule="evenodd"/><path d="M 534.488 254.500 C 534.487 339.750, 534.606 374.773, 534.750 332.329 C 534.894 289.884, 534.894 220.134, 534.750 177.329 C 534.606 134.523, 534.488 169.250, 534.488 254.500 M 520.484 224 C 520.484 288.075, 520.603 314.288, 520.750 282.250 C 520.896 250.213, 520.896 197.788, 520.750 165.750 C 520.603 133.713, 520.484 159.925, 520.484 224 M 223.461 210 C 223.461 235.575, 223.591 246.038, 223.749 233.250 C 223.907 220.463, 223.907 199.538, 223.749 186.750 C 223.591 173.963, 223.461 184.425, 223.461 210 M 309 193.807 C 309 200.737, 318.230 212.477, 342.956 237 C 354.325 248.275, 365.536 259.750, 367.869 262.500 C 370.203 265.250, 371.583 266.375, 370.938 265 C 370.292 263.625, 359.332 252.150, 346.582 239.500 C 319.930 213.058, 317.439 210.166, 312.576 200.018 C 310.609 195.914, 309 193.119, 309 193.807 M 223.479 360 C 223.479 408.675, 223.601 428.588, 223.750 404.250 C 223.899 379.913, 223.899 340.088, 223.750 315.750 C 223.601 291.413, 223.479 311.325, 223.479 360 M 15 416.723 C 15 420.794, 28.322 436.047, 34.807 439.400 L 37.843 440.970 38.343 439.735 C 38.625 439.036, 38.876 439.285, 38.921 440.309 C 38.964 441.304, 39.451 441.839, 40.003 441.498 C 40.670 441.086, 40.658 440.229, 39.968 438.939 L 38.930 437 40.965 437 C 42.291 437, 43 437.656, 43 438.883 C 43 441.126, 46.802 442.410, 48.722 440.816 C 49.452 440.210, 50.337 440.004, 50.691 440.357 C 51.044 440.711, 50.808 441, 50.167 441 C 49.525 441, 49 441.498, 49 442.107 C 49 442.716, 49.600 442.984, 50.333 442.702 C 51.067 442.421, 51.667 442.823, 51.667 443.595 C 51.667 445.267, 51.788 445.250, 48.565 444.025 C 47.154 443.488, 46 443.442, 46 443.921 C 46 445.179, 68.907 453.262, 72.685 453.337 C 74.437 453.372, 75.718 453.647, 75.532 453.950 C 75.016 454.789, 155.844 480.489, 156.606 479.728 C 156.801 479.532, 153.495 478.200, 149.258 476.769 C 141.560 474.168, 138.765 471.986, 143.167 472.015 L 145.500 472.031 144 473 L 142.500 473.969 144.500 473.885 C 145.600 473.839, 147.625 473.469, 149 473.064 C 150.375 472.659, 152.588 472.722, 153.917 473.203 C 155.604 473.813, 156.586 473.688, 157.167 472.789 L 158 471.500 158.861 472.834 L 159.722 474.168 160.329 472.584 L 160.937 471 158.933 471 C 154.923 471, 149.792 466.707, 150.766 464.167 L 151.347 462.653 149.532 463.349 L 147.717 464.046 148.916 462.602 L 150.114 461.157 147.807 461.668 C 146.538 461.948, 144.825 462.451, 144 462.786 C 141.765 463.692, 137.075 463.688, 137.635 462.781 C 137.903 462.347, 139.171 462.256, 140.452 462.577 C 141.733 462.899, 143.082 462.676, 143.450 462.081 C 144.082 461.059, 142.445 460.576, 139 460.769 L 137.500 460.852 139.500 459.360 L 141.500 457.868 138.500 458.515 L 135.500 459.162 137 458.082 L 138.500 457.003 135 457.586 L 131.500 458.168 133 457.019 L 134.500 455.869 132.365 456.465 C 131.191 456.793, 128.266 456.568, 125.865 455.965 C 123.464 455.362, 119.925 454.504, 118 454.059 C 112.417 452.769, 111.075 451.967, 111.714 450.302 L 112.303 448.769 110.026 449.492 C 108.593 449.946, 107.979 449.843, 108.369 449.212 C 109.205 447.860, 106.196 446.803, 103.734 447.584 C 102.513 447.972, 101.991 447.824, 102.376 447.200 C 102.760 446.579, 102.169 446.405, 100.845 446.751 L 98.687 447.315 99.469 446.050 L 100.250 444.786 98 445.500 C 96.467 445.987, 95.968 445.861, 96.434 445.107 C 97.350 443.624, 95.708 443.692, 94.200 445.200 L 93 446.400 93 444.633 L 93 442.865 90.875 443.540 C 89.445 443.994, 88.973 443.852, 89.434 443.107 C 90.154 441.941, 88.601 441.607, 83.500 441.829 L 80.500 441.960 82.500 441.050 L 84.500 440.141 82 439.929 C 73.013 439.167, 72.809 439.118, 73.566 437.893 C 74.019 437.160, 73.581 436.998, 72.270 437.414 C 71.181 437.760, 69.212 437.612, 67.895 437.085 C 66.500 436.527, 66.127 436.069, 67 435.989 C 67.825 435.913, 65.404 434.769, 61.619 433.447 C 57.835 432.125, 54.348 431.285, 53.869 431.581 C 53.391 431.876, 53 431.714, 53 431.219 C 53 430.725, 51.096 429.692, 48.768 428.924 C 46.441 428.155, 42.430 426.078, 39.855 424.307 L 35.173 421.086 34.030 422.464 L 32.886 423.843 35.099 423.264 C 36.647 422.859, 37.093 423.040, 36.582 423.867 C 36.159 424.553, 36.356 424.934, 37.051 424.775 C 37.710 424.624, 38.456 425.063, 38.709 425.751 C 39.014 426.583, 38.592 426.780, 37.447 426.341 L 35.727 425.681 36.239 427.091 C 36.520 427.866, 37.256 428.387, 37.875 428.250 C 39.412 427.908, 39.305 429.706, 37.750 430.354 L 36.500 430.874 38.282 432.321 L 40.063 433.767 38.854 436.422 C 38.112 438.050, 37.101 438.869, 36.240 438.539 C 35.468 438.242, 34.407 438, 33.883 438 C 33.329 438, 33.395 437.130, 34.041 435.924 L 35.151 433.849 33.069 434.963 L 30.987 436.078 28.243 433.334 C 26.734 431.825, 25.444 430.233, 25.375 429.795 C 25.306 429.358, 25.187 428.212, 25.110 427.250 L 24.969 425.500 24.123 426.835 L 23.277 428.169 22.706 425.984 C 22.392 424.782, 21.744 424.040, 21.267 424.335 C 20.791 424.629, 19.856 424, 19.192 422.935 L 17.983 421 19.242 420.985 L 20.500 420.969 19.122 420.096 C 18.296 419.573, 18.060 418.678, 18.532 417.862 C 18.966 417.113, 18.952 416.834, 18.502 417.241 C 18.052 417.649, 17.080 417.481, 16.342 416.869 C 15.578 416.235, 15 416.172, 15 416.723 M 155 464.500 C 155 465.325, 154.235 466, 153.300 466 L 151.600 466 152.675 467.075 C 153.266 467.666, 155.493 468.765, 157.625 469.516 C 159.756 470.268, 161.387 471.359, 161.250 471.942 C 161.113 472.524, 161.955 473, 163.122 473 L 165.245 473 164.178 471.714 L 163.111 470.429 164.982 470.429 C 166.011 470.429, 166.638 470.777, 166.375 471.203 C 166.111 471.629, 166.673 471.679, 167.622 471.315 L 169.347 470.653 168.717 472.294 C 168.371 473.197, 168.518 474.202, 169.044 474.527 C 169.570 474.852, 170 476.181, 170 477.480 L 170 479.841 173.250 480.495 C 178.901 481.633, 180.045 482.118, 179.428 483.116 C 179.098 483.650, 179.426 484.808, 180.156 485.688 L 181.484 487.288 178.992 486.574 C 177.621 486.181, 173.635 484.968, 170.134 483.879 C 166.633 482.790, 163.581 482.085, 163.353 482.314 C 162.705 482.961, 189.593 491, 192.405 491 C 193.282 491, 194 490.523, 194 489.941 C 194 489.359, 194.463 489.168, 195.030 489.518 C 197.686 491.160, 215.016 476.452, 213.436 473.897 C 213.131 473.404, 213.471 473.023, 214.191 473.050 C 214.911 473.078, 216.775 475.792, 218.334 479.082 L 221.169 485.063 226.334 488.958 C 235.950 496.208, 250.505 499.480, 262.500 497.087 L 266.500 496.289 256.326 496.354 C 250.726 496.390, 245.106 495.916, 243.826 495.300 C 236.509 491.778, 232.212 490, 231.018 490 C 230.275 490, 229.949 489.718, 230.293 489.373 C 230.638 489.029, 229.486 487.781, 227.734 486.600 C 225.981 485.419, 223.509 482.888, 222.240 480.976 C 220.971 479.064, 219.230 476.658, 218.372 475.628 C 217.513 474.599, 216.360 472.461, 215.808 470.878 C 214.624 467.483, 212.967 466.994, 213.680 470.250 L 214.173 472.500 213.045 471 L 211.917 469.500 212.077 471 C 212.378 473.820, 212 475.118, 211.050 474.531 C 209.945 473.848, 208.086 476.992, 208.659 478.573 C 208.874 479.163, 208.202 480.412, 207.168 481.348 L 205.287 483.050 204.002 481.502 L 202.717 479.954 204.609 480.647 L 206.500 481.339 204.660 479.241 L 202.820 477.144 203.801 475.391 L 204.782 473.639 203.300 472.157 L 201.818 470.676 200.833 472.088 L 199.848 473.500 199.338 472.244 C 199.058 471.553, 198.348 471.285, 197.760 471.648 C 197.143 472.030, 196.981 471.839, 197.378 471.198 C 197.755 470.587, 198.725 470.341, 199.532 470.651 C 200.339 470.960, 201 470.689, 201 470.048 C 201 469.407, 200.550 469.160, 200 469.500 C 199.450 469.840, 199 469.681, 199 469.148 C 199 467.850, 197.209 468.234, 193.086 470.415 L 189.673 472.221 184.586 471.694 C 181.789 471.404, 178.375 470.895, 177 470.563 L 174.500 469.959 176.500 470.909 C 177.600 471.432, 177.974 471.891, 177.332 471.930 C 175.513 472.039, 172.966 470.864, 173.422 470.126 C 173.648 469.761, 172.157 469.418, 170.110 469.364 C 168.062 469.310, 165.062 468.515, 163.443 467.597 L 160.500 465.927 163 466.454 L 165.500 466.980 162.500 465.544 C 160.850 464.754, 158.656 464.356, 157.625 464.661 C 156.409 465.019, 155.990 464.825, 156.434 464.107 C 156.810 463.498, 156.641 463, 156.059 463 C 155.477 463, 155 463.675, 155 464.500" stroke="none" fill="#f2ded3" fill-rule="evenodd"/><path d="M 41.472 167.500 C 41.472 203.250, 41.597 217.730, 41.750 199.677 C 41.902 181.625, 41.902 152.375, 41.749 134.677 C 41.596 116.980, 41.471 131.750, 41.472 167.500 M 535.487 256 C 535.487 338.225, 535.605 371.863, 535.750 330.750 C 535.894 289.638, 535.894 222.363, 535.750 181.250 C 535.605 140.138, 535.487 173.775, 535.487 256 M 261.503 115.748 C 257.105 115.938, 253.120 116.480, 252.647 116.953 C 252.167 117.433, 252.607 117.744, 253.643 117.657 L 255.500 117.500 255.799 120.073 L 256.099 122.647 250.299 128.532 C 247.110 131.768, 245.850 133.270, 247.500 131.869 C 249.150 130.468, 252.069 128.243, 253.986 126.924 C 258.561 123.779, 260.996 121.293, 261.015 119.750 C 261.026 118.878, 261.253 118.835, 261.765 119.608 C 262.169 120.218, 263.319 120.591, 264.320 120.437 L 266.140 120.156 264.578 122.328 C 263.719 123.523, 262.497 125.400, 261.861 126.500 L 260.705 128.500 263.214 126 C 264.593 124.625, 266.522 121.925, 267.501 120 C 268.479 118.075, 269.779 116.169, 270.390 115.765 C 271 115.361, 271.050 115.114, 270.500 115.217 C 269.950 115.319, 265.902 115.558, 261.503 115.748 M 192.963 279.599 C 192.926 353.794, 192.803 422.528, 192.688 432.341 L 192.480 450.182 189.118 453.186 L 185.755 456.190 182.628 455.694 C 180.907 455.422, 170.725 452.440, 160 449.069 C 149.275 445.697, 136 441.547, 130.500 439.845 C 118.978 436.280, 94.727 428.267, 84.500 424.645 C 80.650 423.281, 74.125 421.176, 70 419.965 C 48.673 413.708, 44.892 410.700, 43.018 398.500 L 42.250 393.500 42.147 398 C 41.874 409.933, 48.592 415.528, 71 422.029 C 75.125 423.225, 85.176 426.620, 93.335 429.573 C 101.495 432.526, 109.820 435.238, 111.835 435.601 C 113.851 435.964, 115.950 436.590, 116.500 436.993 C 117.050 437.395, 118.850 438.036, 120.500 438.418 C 123.566 439.126, 140.251 444.309, 168.177 453.228 L 183.854 458.234 187.677 456.367 L 191.500 454.500 192.628 451 C 193.963 446.858, 195.018 404.402, 195.026 354.500 C 195.037 283.615, 194.070 145.737, 193.558 145.225 C 193.268 144.935, 193 205.403, 192.963 279.599 M 505.461 237 C 505.461 262.025, 505.590 272.263, 505.749 259.750 C 505.908 247.238, 505.908 226.763, 505.749 214.250 C 505.590 201.738, 505.461 211.975, 505.461 237 M 237.135 268 C 236.948 272.125, 236.881 315.315, 236.987 363.977 L 237.179 452.454 238.604 455.477 C 239.388 457.140, 239.685 457.600, 239.265 456.500 C 238.844 455.400, 238.270 410.850, 237.988 357.500 C 237.706 304.150, 237.322 263.875, 237.135 268" stroke="none" fill="#39487b" fill-rule="evenodd"/></svg>